999
"DXF R12 Output" (www.mydxf.blogspot.com)
 0 
SECTION
 2 
HEADER
 9 
$ACADVER
 1 
AC1009
 9 
$EXTMIN
 10 
 0 
 20 
 0 
 9 
$EXTMAX
 10 
 8.5 
 20 
 11 
 0 
ENDSEC
 0 
SECTION
 2 
ENTITIES
0
LINE
8
Layer 1
10
0.793749
20
529.960749
11
-0.793749
21
528.373251
0
LINE
8
Layer 1
10
0.000000
20
530.489915
11
0.000000
21
527.844085
0
LINE
8
Layer 1
10
2.116664
20
528.108668
11
1.058332
21
527.050336
0
LINE
8
Layer 1
10
1.587498
20
528.637834
11
0.529166
21
527.579502
0
LINE
8
Layer 1
10
1.058332
20
529.167000
11
0.000000
21
528.108668
0
LINE
8
0
10
90.888319
20
518.350559
11
88.329815
21
518.438018
0
LINE
8
0
10
88.329815
20
518.438018
11
85.802241
21
518.322005
0
LINE
8
0
10
85.802241
20
518.322005
11
83.315405
21
518.008582
0
LINE
8
0
10
83.315405
20
518.008582
11
80.879111
21
517.503814
0
LINE
8
0
10
80.879111
20
517.503814
11
78.503166
21
516.813763
0
LINE
8
0
10
78.503166
20
516.813763
11
76.197374
21
515.944492
0
LINE
8
0
10
76.197374
20
515.944492
11
73.971543
21
514.902066
0
LINE
8
0
10
73.971543
20
514.902066
11
71.835477
21
513.692546
0
LINE
8
0
10
71.835477
20
513.692546
11
69.798983
21
512.321997
0
LINE
8
0
10
69.798983
20
512.321997
11
67.871865
21
510.796482
0
LINE
8
0
10
67.871865
20
510.796482
11
66.063930
21
509.122064
0
LINE
8
0
10
66.063930
20
509.122064
11
64.384984
21
507.304806
0
LINE
8
0
10
64.384984
20
507.304806
11
62.844832
21
505.350772
0
LINE
8
0
10
62.844832
20
505.350772
11
61.453279
21
503.266025
0
LINE
8
0
10
61.453279
20
503.266025
11
60.220133
21
501.056628
0
LINE
8
0
10
60.220133
20
501.056628
11
59.155197
21
498.728644
0
LINE
8
0
10
59.155197
20
498.728644
11
8.454874
21
375.019463
0
LINE
8
0
10
8.454874
20
375.019463
11
7.770189
21
373.142852
0
LINE
8
0
10
7.770189
20
373.142852
11
7.239937
21
371.239811
0
LINE
8
0
10
7.239937
20
371.239811
11
6.862206
21
369.318713
0
LINE
8
0
10
6.862206
20
369.318713
11
6.635085
21
367.387934
0
LINE
8
0
10
6.635085
20
367.387934
11
6.625027
21
363.530834
0
LINE
8
0
10
6.625027
20
363.530834
11
7.194470
21
359.735509
0
LINE
8
0
10
7.194470
20
359.735509
11
8.328124
21
356.068959
0
LINE
8
0
10
8.328124
20
356.068959
11
10.010695
21
352.598184
0
LINE
8
0
10
10.010695
20
352.598184
11
11.053046
21
350.957149
0
LINE
8
0
10
11.053046
20
350.957149
11
12.226892
21
349.390183
0
LINE
8
0
10
12.226892
20
349.390183
11
13.530321
21
347.905661
0
LINE
8
0
10
13.530321
20
347.905661
11
14.961422
21
346.511957
0
LINE
8
0
10
14.961422
20
346.511957
11
16.497055
21
345.234344
0
LINE
8
0
10
16.497055
20
345.234344
11
18.109666
21
344.093196
0
LINE
8
0
10
18.109666
20
344.093196
11
19.790726
21
343.089537
0
LINE
8
0
10
19.790726
20
343.089537
11
21.531708
21
342.224393
0
LINE
8
0
10
21.531708
20
342.224393
11
25.159318
21
340.913756
0
LINE
8
0
10
25.159318
20
340.913756
11
28.924266
21
340.169491
0
LINE
8
0
10
28.924266
20
340.169491
11
32.758319
21
339.999805
0
LINE
8
0
10
32.758319
20
339.999805
11
36.593247
21
340.412902
0
LINE
8
0
10
36.593247
20
340.412902
11
38.489718
21
340.840560
0
LINE
8
0
10
38.489718
20
340.840560
11
40.360820
21
341.416990
0
LINE
8
0
10
40.360820
20
341.416990
11
42.198025
21
342.143221
0
LINE
8
0
10
42.198025
20
342.143221
11
43.992805
21
343.020276
0
LINE
8
0
10
43.992805
20
343.020276
11
48.643235
21
345.426563
0
LINE
8
0
10
48.643235
20
345.426563
11
53.349650
21
347.672275
0
LINE
8
0
10
53.349650
20
347.672275
11
58.108160
21
349.757471
0
LINE
8
0
10
58.108160
20
349.757471
11
62.914872
21
351.682208
0
LINE
8
0
10
62.914872
20
351.682208
11
67.765895
21
353.446545
0
LINE
8
0
10
67.765895
20
353.446545
11
72.657337
21
355.050539
0
LINE
8
0
10
72.657337
20
355.050539
11
77.585306
21
356.494250
0
LINE
8
0
10
77.585306
20
356.494250
11
82.545911
21
357.777736
0
LINE
8
0
10
82.545911
20
357.777736
11
87.535259
21
358.901054
0
LINE
8
0
10
87.535259
20
358.901054
11
92.549458
21
359.864264
0
LINE
8
0
10
92.549458
20
359.864264
11
97.584617
21
360.667422
0
LINE
8
0
10
97.584617
20
360.667422
11
102.636844
21
361.310589
0
LINE
8
0
10
102.636844
20
361.310589
11
107.702247
21
361.793821
0
LINE
8
0
10
107.702247
20
361.793821
11
112.776935
21
362.117178
0
LINE
8
0
10
112.776935
20
362.117178
11
117.857015
21
362.280717
0
LINE
8
0
10
117.857015
20
362.280717
11
122.938595
21
362.284497
0
LINE
8
0
10
122.938595
20
362.284497
11
128.017784
21
362.128576
0
LINE
8
0
10
128.017784
20
362.128576
11
133.090690
21
361.813013
0
LINE
8
0
10
133.090690
20
361.813013
11
138.153421
21
361.337864
0
LINE
8
0
10
138.153421
20
361.337864
11
143.202085
21
360.703190
0
LINE
8
0
10
143.202085
20
360.703190
11
148.232791
21
359.909048
0
LINE
8
0
10
148.232791
20
359.909048
11
153.241646
21
358.955496
0
LINE
8
0
10
153.241646
20
358.955496
11
158.224759
21
357.842593
0
LINE
8
0
10
158.224759
20
357.842593
11
163.178238
21
356.570397
0
LINE
8
0
10
163.178238
20
356.570397
11
168.098191
21
355.138966
0
LINE
8
0
10
168.098191
20
355.138966
11
172.980726
21
353.548359
0
LINE
8
0
10
172.980726
20
353.548359
11
177.821952
21
351.798633
0
LINE
8
0
10
177.821952
20
351.798633
11
182.617976
21
349.889848
0
LINE
8
0
10
182.617976
20
349.889848
11
187.364907
21
347.822060
0
LINE
8
0
10
187.364907
20
347.822060
11
192.058852
21
345.595330
0
LINE
8
0
10
192.058852
20
345.595330
11
196.695921
21
343.209714
0
LINE
8
0
10
196.695921
20
343.209714
11
201.272221
21
340.665271
0
LINE
8
0
10
201.272221
20
340.665271
11
205.763923
21
337.974300
0
LINE
8
0
10
205.763923
20
337.974300
11
210.148461
21
335.151289
0
LINE
8
0
10
210.148461
20
335.151289
11
214.423839
21
332.199578
0
LINE
8
0
10
214.423839
20
332.199578
11
218.588061
21
329.122509
0
LINE
8
0
10
218.588061
20
329.122509
11
222.639129
21
325.923423
0
LINE
8
0
10
222.639129
20
325.923423
11
226.575049
21
322.605661
0
LINE
8
0
10
226.575049
20
322.605661
11
230.393823
21
319.172565
0
LINE
8
0
10
230.393823
20
319.172565
11
234.093455
21
315.627476
0
LINE
8
0
10
234.093455
20
315.627476
11
237.671948
21
311.973736
0
LINE
8
0
10
237.671948
20
311.973736
11
241.127307
21
308.214685
0
LINE
8
0
10
241.127307
20
308.214685
11
244.457534
21
304.353665
0
LINE
8
0
10
244.457534
20
304.353665
11
247.660634
21
300.394017
0
LINE
8
0
10
247.660634
20
300.394017
11
250.734611
21
296.339082
0
LINE
8
0
10
250.734611
20
296.339082
11
253.677466
21
292.192202
0
LINE
8
0
10
253.677466
20
292.192202
11
256.487205
21
287.956719
0
LINE
8
0
10
256.487205
20
287.956719
11
259.161831
21
283.635972
0
LINE
8
0
10
259.161831
20
283.635972
11
261.699348
21
279.233305
0
LINE
8
0
10
261.699348
20
279.233305
11
264.097759
21
274.752057
0
LINE
8
0
10
264.097759
20
274.752057
11
266.355067
21
270.195570
0
LINE
8
0
10
266.355067
20
270.195570
11
268.469277
21
265.567186
0
LINE
8
0
10
268.469277
20
265.567186
11
270.438392
21
260.870246
0
LINE
8
0
10
270.438392
20
260.870246
11
272.260415
21
256.108091
0
LINE
8
0
10
272.260415
20
256.108091
11
273.933351
21
251.284062
0
LINE
8
0
10
273.933351
20
251.284062
11
275.455202
21
246.401500
0
LINE
8
0
10
275.455202
20
246.401500
11
276.823973
21
241.463748
0
LINE
8
0
10
276.823973
20
241.463748
11
278.037667
21
236.474146
0
LINE
8
0
10
278.037667
20
236.474146
11
279.094288
21
231.436036
0
LINE
8
0
10
279.094288
20
231.436036
11
279.991839
21
226.352758
0
LINE
8
0
10
279.991839
20
226.352758
11
280.728324
21
221.227655
0
LINE
8
0
10
280.728324
20
221.227655
11
281.301747
21
216.064067
0
LINE
8
0
10
281.301747
20
216.064067
11
281.710110
21
210.865335
0
LINE
8
0
10
281.710110
20
210.865335
11
281.951419
21
205.634802
0
LINE
8
0
10
281.951419
20
205.634802
11
282.092186
21
203.614869
0
LINE
8
0
10
282.092186
20
203.614869
11
282.388811
21
201.635139
0
LINE
8
0
10
282.388811
20
201.635139
11
282.835881
21
199.702715
0
LINE
8
0
10
282.835881
20
199.702715
11
283.427985
21
197.824698
0
LINE
8
0
10
283.427985
20
197.824698
11
284.159709
21
196.008188
0
LINE
8
0
10
284.159709
20
196.008188
11
285.025641
21
194.260288
0
LINE
8
0
10
285.025641
20
194.260288
11
287.138481
21
190.998719
0
LINE
8
0
10
287.138481
20
190.998719
11
289.723206
21
188.096803
0
LINE
8
0
10
289.723206
20
188.096803
11
291.178995
21
186.798468
0
LINE
8
0
10
291.178995
20
186.798468
11
292.736518
21
185.611350
0
LINE
8
0
10
292.736518
20
185.611350
11
294.390363
21
184.542550
0
LINE
8
0
10
294.390363
20
184.542550
11
296.135118
21
183.599170
0
LINE
8
0
10
296.135118
20
183.599170
11
297.965369
21
182.788311
0
LINE
8
0
10
297.965369
20
182.788311
11
299.875706
21
182.117074
0
LINE
8
0
10
299.875706
20
182.117074
11
301.833195
21
181.599209
0
LINE
8
0
10
301.833195
20
181.599209
11
303.802865
21
181.241842
0
LINE
8
0
10
303.802865
20
181.241842
11
305.776252
21
181.042138
0
LINE
8
0
10
305.776252
20
181.042138
11
307.744886
21
180.997264
0
LINE
8
0
10
307.744886
20
180.997264
11
309.700303
21
181.104384
0
LINE
8
0
10
309.700303
20
181.104384
11
311.634033
21
181.360665
0
LINE
8
0
10
311.634033
20
181.360665
11
315.402572
21
182.309370
0
LINE
8
0
10
315.402572
20
182.309370
11
318.982766
21
183.820705
0
LINE
8
0
10
318.982766
20
183.820705
11
320.681066
21
184.780273
0
LINE
8
0
10
320.681066
20
184.780273
11
322.306880
21
185.871995
0
LINE
8
0
10
322.306880
20
185.871995
11
323.851740
21
187.093036
0
LINE
8
0
10
323.851740
20
187.093036
11
325.307180
21
188.440564
0
LINE
8
0
10
325.307180
20
188.440564
11
326.664732
21
189.911742
0
LINE
8
0
10
326.664732
20
189.911742
11
327.915930
21
191.503738
0
LINE
8
0
10
327.915930
20
191.503738
11
329.037142
21
193.189807
0
LINE
8
0
10
329.037142
20
193.189807
11
330.010349
21
194.939144
0
LINE
8
0
10
330.010349
20
194.939144
11
330.835507
21
196.742821
0
LINE
8
0
10
330.835507
20
196.742821
11
331.512569
21
198.591908
0
LINE
8
0
10
331.512569
20
198.591908
11
332.041488
21
200.477478
0
LINE
8
0
10
332.041488
20
200.477478
11
332.422218
21
202.390601
0
LINE
8
0
10
332.422218
20
202.390601
11
332.738928
21
206.263793
0
LINE
8
0
10
332.738928
20
206.263793
11
332.462328
21
210.140056
0
LINE
8
0
10
332.462328
20
210.140056
11
332.101422
21
212.057017
0
LINE
8
0
10
332.101422
20
212.057017
11
331.592050
21
213.947961
0
LINE
8
0
10
331.592050
20
213.947961
11
330.934165
21
215.803957
0
LINE
8
0
10
330.934165
20
215.803957
11
330.127722
21
217.616079
0
LINE
8
0
10
330.127722
20
217.616079
11
329.172675
21
219.375397
0
LINE
8
0
10
329.172675
20
219.375397
11
328.068976
21
221.072982
0
LINE
8
0
10
328.068976
20
221.072982
11
324.793984
21
225.940087
0
LINE
8
0
10
324.793984
20
225.940087
11
321.782908
21
230.911053
0
LINE
8
0
10
321.782908
20
230.911053
11
319.034616
21
235.976881
0
LINE
8
0
10
319.034616
20
235.976881
11
316.547975
21
241.128576
0
LINE
8
0
10
316.547975
20
241.128576
11
314.321851
21
246.357139
0
LINE
8
0
10
314.321851
20
246.357139
11
312.355112
21
251.653574
0
LINE
8
0
10
312.355112
20
251.653574
11
310.646624
21
257.008884
0
LINE
8
0
10
310.646624
20
257.008884
11
309.195255
21
262.414070
0
LINE
8
0
10
309.195255
20
262.414070
11
307.999870
21
267.860136
0
LINE
8
0
10
307.999870
20
267.860136
11
307.059338
21
273.338085
0
LINE
8
0
10
307.059338
20
273.338085
11
306.372524
21
278.838920
0
LINE
8
0
10
306.372524
20
278.838920
11
305.938296
21
284.353643
0
LINE
8
0
10
305.938296
20
284.353643
11
305.755521
21
289.873257
0
LINE
8
0
10
305.755521
20
289.873257
11
305.823065
21
295.388765
0
LINE
8
0
10
305.823065
20
295.388765
11
306.139796
21
300.891170
0
LINE
8
0
10
306.139796
20
300.891170
11
306.704579
21
306.371474
0
LINE
8
0
10
306.704579
20
306.371474
11
307.516283
21
311.820681
0
LINE
8
0
10
307.516283
20
311.820681
11
308.573774
21
317.229792
0
LINE
8
0
10
308.573774
20
317.229792
11
309.875919
21
322.589812
0
LINE
8
0
10
309.875919
20
322.589812
11
311.421584
21
327.891742
0
LINE
8
0
10
311.421584
20
327.891742
11
313.209637
21
333.126586
0
LINE
8
0
10
313.209637
20
333.126586
11
315.238944
21
338.285346
0
LINE
8
0
10
315.238944
20
338.285346
11
317.508372
21
343.359025
0
LINE
8
0
10
317.508372
20
343.359025
11
320.016789
21
348.338627
0
LINE
8
0
10
320.016789
20
348.338627
11
322.763061
21
353.215152
0
LINE
8
0
10
322.763061
20
353.215152
11
325.746055
21
357.979606
0
LINE
8
0
10
325.746055
20
357.979606
11
328.964637
21
362.622990
0
LINE
8
0
10
328.964637
20
362.622990
11
332.417675
21
367.136306
0
LINE
8
0
10
332.417675
20
367.136306
11
336.104036
21
371.510559
0
LINE
8
0
10
336.104036
20
371.510559
11
340.022586
21
375.736751
0
LINE
8
0
10
340.022586
20
375.736751
11
344.172193
21
379.805884
0
LINE
8
0
10
344.172193
20
379.805884
11
348.551722
21
383.708961
0
LINE
8
0
10
348.551722
20
383.708961
11
350.803541
21
385.868934
0
LINE
8
0
10
350.803541
20
385.868934
11
352.757985
21
388.257810
0
LINE
8
0
10
352.757985
20
388.257810
11
354.402523
21
390.844949
0
LINE
8
0
10
354.402523
20
390.844949
11
355.724626
21
393.599716
0
LINE
8
0
10
355.724626
20
393.599716
11
356.711765
21
396.491472
0
LINE
8
0
10
356.711765
20
396.491472
11
357.351410
21
399.489580
0
LINE
8
0
10
357.351410
20
399.489580
11
357.631031
21
402.563403
0
LINE
8
0
10
357.631031
20
402.563403
11
357.538099
21
405.682303
0
LINE
8
0
10
357.538099
20
405.682303
11
357.069567
21
408.767210
0
LINE
8
0
10
357.069567
20
408.767210
11
356.242628
21
411.740885
0
LINE
8
0
10
356.242628
20
411.740885
11
355.075108
21
414.575439
0
LINE
8
0
10
355.075108
20
414.575439
11
353.584834
21
417.242981
0
LINE
8
0
10
353.584834
20
417.242981
11
351.789633
21
419.715622
0
LINE
8
0
10
351.789633
20
419.715622
11
349.707332
21
421.965470
0
LINE
8
0
10
349.707332
20
421.965470
11
347.355757
21
423.964637
0
LINE
8
0
10
347.355757
20
423.964637
11
344.752734
21
425.685231
0
LINE
8
0
10
344.752734
20
425.685231
11
203.161379
21
507.433031
0
LINE
8
0
10
203.161379
20
507.433031
11
200.573109
21
508.739148
0
LINE
8
0
10
200.573109
20
508.739148
11
197.863233
21
509.743724
0
LINE
8
0
10
197.863233
20
509.743724
11
195.057947
21
510.438688
0
LINE
8
0
10
195.057947
20
510.438688
11
192.183447
21
510.815965
0
LINE
8
0
10
192.183447
20
510.815965
11
90.888319
21
518.350559
0
LINE
8
0
10
289.858508
20
444.913629
11
289.141736
21
445.154004
0
LINE
8
0
10
289.141736
20
445.154004
11
288.413659
21
445.102816
0
LINE
8
0
10
288.413659
20
445.102816
11
287.757830
21
444.782494
0
LINE
8
0
10
287.757830
20
444.782494
11
287.257805
21
444.215468
0
LINE
8
0
10
287.257805
20
444.215468
11
287.016761
21
443.498921
0
LINE
8
0
10
287.016761
20
443.498921
11
287.067269
21
442.770796
0
LINE
8
0
10
287.067269
20
442.770796
11
287.386979
21
442.114669
0
LINE
8
0
10
287.386979
20
442.114669
11
287.953537
21
441.614115
0
LINE
8
0
10
287.953537
20
441.614115
11
288.670309
21
441.373739
0
LINE
8
0
10
288.670309
20
441.373739
11
289.398387
21
441.424927
0
LINE
8
0
10
289.398387
20
441.424927
11
290.054215
21
441.745249
0
LINE
8
0
10
290.054215
20
441.745249
11
290.554240
21
442.312275
0
LINE
8
0
10
290.554240
20
442.312275
11
290.795285
21
443.028823
0
LINE
8
0
10
290.795285
20
443.028823
11
290.744776
21
443.756948
0
LINE
8
0
10
290.744776
20
443.756948
11
290.425067
21
444.413074
0
LINE
8
0
10
290.425067
20
444.413074
11
289.858508
21
444.913629
0
LINE
8
0
10
289.858508
20
444.913629
11
289.858508
21
444.913629
0
LINE
8
0
10
186.936676
20
365.023070
11
186.220136
21
365.262743
0
LINE
8
0
10
186.220136
20
365.262743
11
185.492487
21
365.211179
0
LINE
8
0
10
185.492487
20
365.211179
11
184.837130
21
364.890807
0
LINE
8
0
10
184.837130
20
364.890807
11
184.337463
21
364.324055
0
LINE
8
0
10
184.337463
20
364.324055
11
184.096475
21
363.607956
0
LINE
8
0
10
184.096475
20
363.607956
11
184.146704
21
362.880214
0
LINE
8
0
10
184.146704
20
362.880214
11
184.465872
21
362.224269
0
LINE
8
0
10
184.465872
20
362.224269
11
185.031705
21
361.723564
0
LINE
8
0
10
185.031705
20
361.723564
11
185.748246
21
361.483891
0
LINE
8
0
10
185.748246
20
361.483891
11
186.475894
21
361.535455
0
LINE
8
0
10
186.475894
20
361.535455
11
187.131252
21
361.855827
0
LINE
8
0
10
187.131252
20
361.855827
11
187.630918
21
362.422578
0
LINE
8
0
10
187.630918
20
362.422578
11
187.871906
21
363.138677
0
LINE
8
0
10
187.871906
20
363.138677
11
187.821678
21
363.866419
0
LINE
8
0
10
187.821678
20
363.866419
11
187.502509
21
364.522364
0
LINE
8
0
10
187.502509
20
364.522364
11
186.936676
21
365.023070
0
LINE
8
0
10
186.936676
20
365.023070
11
186.936676
21
365.023070
0
LINE
8
0
10
229.534428
20
340.429246
11
228.817888
21
340.668919
0
LINE
8
0
10
228.817888
20
340.668919
11
228.090239
21
340.617355
0
LINE
8
0
10
228.090239
20
340.617355
11
227.434882
21
340.296983
0
LINE
8
0
10
227.434882
20
340.296983
11
226.935215
21
339.730232
0
LINE
8
0
10
226.935215
20
339.730232
11
226.694227
21
339.014133
0
LINE
8
0
10
226.694227
20
339.014133
11
226.744455
21
338.286391
0
LINE
8
0
10
226.744455
20
338.286391
11
227.063624
21
337.630446
0
LINE
8
0
10
227.063624
20
337.630446
11
227.629457
21
337.129740
0
LINE
8
0
10
227.629457
20
337.129740
11
228.345998
21
336.890067
0
LINE
8
0
10
228.345998
20
336.890067
11
229.073646
21
336.941631
0
LINE
8
0
10
229.073646
20
336.941631
11
229.729004
21
337.262003
0
LINE
8
0
10
229.729004
20
337.262003
11
230.228670
21
337.828755
0
LINE
8
0
10
230.228670
20
337.828755
11
230.469658
21
338.544854
0
LINE
8
0
10
230.469658
20
338.544854
11
230.419430
21
339.272596
0
LINE
8
0
10
230.419430
20
339.272596
11
230.100261
21
339.928540
0
LINE
8
0
10
230.100261
20
339.928540
11
229.534428
21
340.429246
0
LINE
8
0
10
229.534428
20
340.429246
11
229.534428
21
340.429246
0
LINE
8
0
10
247.260764
20
469.507452
11
246.543780
21
469.748475
0
LINE
8
0
10
246.543780
20
469.748475
11
245.815309
21
469.697635
0
LINE
8
0
10
245.815309
20
469.697635
11
245.159048
21
469.377360
0
LINE
8
0
10
245.159048
20
469.377360
11
244.658692
21
468.810083
0
LINE
8
0
10
244.658692
20
468.810083
11
244.417593
21
468.093124
0
LINE
8
0
10
244.417593
20
468.093124
11
244.468358
21
467.364648
0
LINE
8
0
10
244.468358
20
467.364648
11
244.788563
21
466.708353
0
LINE
8
0
10
244.788563
20
466.708353
11
245.355788
21
466.207938
0
LINE
8
0
10
245.355788
20
466.207938
11
246.072772
21
465.966914
0
LINE
8
0
10
246.072772
20
465.966914
11
246.801243
21
466.017755
0
LINE
8
0
10
246.801243
20
466.017755
11
247.457504
21
466.338030
0
LINE
8
0
10
247.457504
20
466.338030
11
247.957860
21
466.905307
0
LINE
8
0
10
247.957860
20
466.905307
11
248.198959
21
467.622266
0
LINE
8
0
10
248.198959
20
467.622266
11
248.148194
21
468.350742
0
LINE
8
0
10
248.148194
20
468.350742
11
247.827989
21
469.007037
0
LINE
8
0
10
247.827989
20
469.007037
11
247.260764
21
469.507452
0
LINE
8
0
10
247.260764
20
469.507452
11
247.260764
21
469.507452
0
LINE
8
0
10
257.445199
20
415.537124
11
256.484861
21
415.858813
0
LINE
8
0
10
256.484861
20
415.858813
11
255.509491
21
415.789999
0
LINE
8
0
10
255.509491
20
415.789999
11
254.630959
21
415.360739
0
LINE
8
0
10
254.630959
20
415.360739
11
253.961137
21
414.601087
0
LINE
8
0
10
253.961137
20
414.601087
11
253.638171
21
413.641178
0
LINE
8
0
10
253.638171
20
413.641178
11
253.705686
21
412.665718
0
LINE
8
0
10
253.705686
20
412.665718
11
254.133777
21
411.786615
0
LINE
8
0
10
254.133777
20
411.786615
11
254.892537
21
411.115783
0
LINE
8
0
10
254.892537
20
411.115783
11
255.852874
21
410.794094
0
LINE
8
0
10
255.852874
20
410.794094
11
256.828244
21
410.862908
0
LINE
8
0
10
256.828244
20
410.862908
11
257.706776
21
411.292168
0
LINE
8
0
10
257.706776
20
411.292168
11
258.376598
21
412.051820
0
LINE
8
0
10
258.376598
20
412.051820
11
258.699565
21
413.011728
0
LINE
8
0
10
258.699565
20
413.011728
11
258.632049
21
413.987189
0
LINE
8
0
10
258.632049
20
413.987189
11
258.203959
21
414.866291
0
LINE
8
0
10
258.203959
20
414.866291
11
257.445199
21
415.537124
0
LINE
8
0
10
257.445199
20
415.537124
11
257.445199
21
415.537124
0
LINE
8
0
10
316.808853
20
439.267039
11
315.848234
21
439.589578
0
LINE
8
0
10
315.848234
20
439.589578
11
314.872345
21
439.521220
0
LINE
8
0
10
314.872345
20
439.521220
11
313.993242
21
439.092020
0
LINE
8
0
10
313.993242
20
439.092020
11
313.322985
21
438.332036
0
LINE
8
0
10
313.322985
20
438.332036
11
312.999948
21
437.371584
0
LINE
8
0
10
312.999948
20
437.371584
11
313.067801
21
436.395660
0
LINE
8
0
10
313.067801
20
436.395660
11
313.496546
21
435.516335
0
LINE
8
0
10
313.496546
20
435.516335
11
314.256183
21
434.845685
0
LINE
8
0
10
314.256183
20
434.845685
11
315.216802
21
434.523145
0
LINE
8
0
10
315.216802
20
434.523145
11
316.192691
21
434.591503
0
LINE
8
0
10
316.192691
20
434.591503
11
317.071794
21
435.020703
0
LINE
8
0
10
317.071794
20
435.020703
11
317.742051
21
435.780687
0
LINE
8
0
10
317.742051
20
435.780687
11
318.065088
21
436.741139
0
LINE
8
0
10
318.065088
20
436.741139
11
317.997235
21
437.717064
0
LINE
8
0
10
317.997235
20
437.717064
11
317.568490
21
438.596388
0
LINE
8
0
10
317.568490
20
438.596388
11
316.808853
21
439.267039
0
LINE
8
0
10
316.808853
20
439.267039
11
316.808853
21
439.267039
0
LINE
8
0
10
281.486176
20
385.980448
11
280.525744
21
386.302427
0
LINE
8
0
10
280.525744
20
386.302427
11
279.550199
21
386.233769
0
LINE
8
0
10
279.550199
20
386.233769
11
278.671474
21
385.804531
0
LINE
8
0
10
278.671474
20
385.804531
11
278.001504
21
385.044768
0
LINE
8
0
10
278.001504
20
385.044768
11
277.678512
21
384.084677
0
LINE
8
0
10
277.678512
20
384.084677
11
277.746140
21
383.109059
0
LINE
8
0
10
277.746140
20
383.109059
11
278.174451
21
382.229882
0
LINE
8
0
10
278.174451
20
382.229882
11
278.933506
21
381.559110
0
LINE
8
0
10
278.933506
20
381.559110
11
279.893937
21
381.237132
0
LINE
8
0
10
279.893937
20
381.237132
11
280.869483
21
381.305790
0
LINE
8
0
10
280.869483
20
381.305790
11
281.748208
21
381.735028
0
LINE
8
0
10
281.748208
20
381.735028
11
282.418178
21
382.494791
0
LINE
8
0
10
282.418178
20
382.494791
11
282.741170
21
383.454882
0
LINE
8
0
10
282.741170
20
383.454882
11
282.673542
21
384.430499
0
LINE
8
0
10
282.673542
20
384.430499
11
282.245231
21
385.309677
0
LINE
8
0
10
282.245231
20
385.309677
11
281.486176
21
385.980448
0
LINE
8
0
10
281.486176
20
385.980448
11
281.486176
21
385.980448
0
LINE
8
0
10
308.389372
20
362.702058
11
307.428578
21
363.025139
0
LINE
8
0
10
307.428578
20
363.025139
11
306.452361
21
362.957072
0
LINE
8
0
10
306.452361
20
362.957072
11
305.572897
21
362.527913
0
LINE
8
0
10
305.572897
20
362.527913
11
304.902364
21
361.767720
0
LINE
8
0
10
304.902364
20
361.767720
11
304.579283
21
360.806925
0
LINE
8
0
10
304.579283
20
360.806925
11
304.647350
21
359.830708
0
LINE
8
0
10
304.647350
20
359.830708
11
305.076509
21
358.951245
0
LINE
8
0
10
305.076509
20
358.951245
11
305.836702
21
358.280712
0
LINE
8
0
10
305.836702
20
358.280712
11
306.457687
21
358.024217
0
LINE
8
0
10
306.457687
20
358.024217
11
307.113035
21
357.938718
0
LINE
8
0
10
307.113035
20
357.938718
11
307.768384
21
358.024216
0
LINE
8
0
10
307.768384
20
358.024216
11
308.389369
21
358.280709
0
LINE
8
0
10
308.389369
20
358.280709
11
308.921992
21
358.690250
0
LINE
8
0
10
308.921992
20
358.690250
11
309.323710
21
359.215049
0
LINE
8
0
10
309.323710
20
359.215049
11
309.577341
21
359.825347
0
LINE
8
0
10
309.577341
20
359.825347
11
309.665704
21
360.491382
0
LINE
8
0
10
309.665704
20
360.491382
11
309.577342
21
361.157418
0
LINE
8
0
10
309.577342
20
361.157418
11
309.323712
21
361.767716
0
LINE
8
0
10
309.323712
20
361.767716
11
308.921995
21
362.292516
0
LINE
8
0
10
308.921995
20
362.292516
11
308.389372
21
362.702058
0
LINE
8
0
10
308.389372
20
362.702058
11
308.389372
21
362.702058
0
LINE
8
0
10
87.641124
20
384.590345
11
86.680890
21
384.911718
0
LINE
8
0
10
86.680890
20
384.911718
11
85.705713
21
384.842735
0
LINE
8
0
10
85.705713
20
384.842735
11
84.827393
21
384.413452
0
LINE
8
0
10
84.827393
20
384.413452
11
84.157732
21
383.653924
0
LINE
8
0
10
84.157732
20
383.653924
11
83.834791
21
382.694217
0
LINE
8
0
10
83.834791
20
382.694217
11
83.902180
21
381.718928
0
LINE
8
0
10
83.902180
20
381.718928
11
84.330028
21
380.839908
0
LINE
8
0
10
84.330028
20
380.839908
11
85.088461
21
380.169007
0
LINE
8
0
10
85.088461
20
380.169007
11
86.048695
21
379.847634
0
LINE
8
0
10
86.048695
20
379.847634
11
87.023872
21
379.916617
0
LINE
8
0
10
87.023872
20
379.916617
11
87.902192
21
380.345900
0
LINE
8
0
10
87.902192
20
380.345900
11
88.571853
21
381.105428
0
LINE
8
0
10
88.571853
20
381.105428
11
88.894794
21
382.065135
0
LINE
8
0
10
88.894794
20
382.065135
11
88.827405
21
383.040424
0
LINE
8
0
10
88.827405
20
383.040424
11
88.399557
21
383.919445
0
LINE
8
0
10
88.399557
20
383.919445
11
87.641124
21
384.590345
0
LINE
8
0
10
87.641124
20
384.590345
11
87.641124
21
384.590345
0
LINE
8
0
10
166.798026
20
444.449857
11
166.177041
21
444.706351
0
LINE
8
0
10
166.177041
20
444.706351
11
165.521693
21
444.791849
0
LINE
8
0
10
165.521693
20
444.791849
11
164.866345
21
444.706351
0
LINE
8
0
10
164.866345
20
444.706351
11
164.245361
21
444.449857
0
LINE
8
0
10
164.245361
20
444.449857
11
163.712738
21
444.040316
0
LINE
8
0
10
163.712738
20
444.040316
11
163.311020
21
443.515517
0
LINE
8
0
10
163.311020
20
443.515517
11
163.057390
21
442.905219
0
LINE
8
0
10
163.057390
20
442.905219
11
162.969028
21
442.239184
0
LINE
8
0
10
162.969028
20
442.239184
11
163.057390
21
441.573149
0
LINE
8
0
10
163.057390
20
441.573149
11
163.311021
21
440.962851
0
LINE
8
0
10
163.311021
20
440.962851
11
163.712738
21
440.438052
0
LINE
8
0
10
163.712738
20
440.438052
11
164.245361
21
440.028511
0
LINE
8
0
10
164.245361
20
440.028511
11
164.866345
21
439.772017
0
LINE
8
0
10
164.866345
20
439.772017
11
165.521694
21
439.686519
0
LINE
8
0
10
165.521694
20
439.686519
11
166.177042
21
439.772017
0
LINE
8
0
10
166.177042
20
439.772017
11
166.798026
21
440.028511
0
LINE
8
0
10
166.798026
20
440.028511
11
167.330649
21
440.438052
0
LINE
8
0
10
167.330649
20
440.438052
11
167.732366
21
440.962852
0
LINE
8
0
10
167.732366
20
440.962852
11
167.985997
21
441.573149
0
LINE
8
0
10
167.985997
20
441.573149
11
168.074359
21
442.239184
0
LINE
8
0
10
168.074359
20
442.239184
11
167.985997
21
442.905220
0
LINE
8
0
10
167.985997
20
442.905220
11
167.732366
21
443.515517
0
LINE
8
0
10
167.732366
20
443.515517
11
167.330649
21
444.040316
0
LINE
8
0
10
167.330649
20
444.040316
11
166.798026
21
444.449857
0
LINE
8
0
10
166.798026
20
444.449857
11
166.798026
21
444.449857
0
LINE
8
0
10
296.127961
20
264.220410
11
295.167327
21
264.543005
0
LINE
8
0
10
295.167327
20
264.543005
11
294.191406
21
264.474678
0
LINE
8
0
10
294.191406
20
264.474678
11
293.312268
21
264.045484
0
LINE
8
0
10
293.312268
20
264.045484
11
292.641984
21
263.285481
0
LINE
8
0
10
292.641984
20
263.285481
11
292.318942
21
262.324997
0
LINE
8
0
10
292.318942
20
262.324997
11
292.386815
21
261.349045
0
LINE
8
0
10
292.386815
20
261.349045
11
292.815600
21
260.469707
0
LINE
8
0
10
292.815600
20
260.469707
11
293.575291
21
259.799069
0
LINE
8
0
10
293.575291
20
259.799069
11
294.535925
21
259.476474
0
LINE
8
0
10
294.535925
20
259.476474
11
295.511846
21
259.544802
0
LINE
8
0
10
295.511846
20
259.544802
11
296.390984
21
259.973995
0
LINE
8
0
10
296.390984
20
259.973995
11
297.061268
21
260.733998
0
LINE
8
0
10
297.061268
20
260.733998
11
297.384310
21
261.694482
0
LINE
8
0
10
297.384310
20
261.694482
11
297.316437
21
262.670435
0
LINE
8
0
10
297.316437
20
262.670435
11
296.887652
21
263.549772
0
LINE
8
0
10
296.887652
20
263.549772
11
296.127961
21
264.220410
0
LINE
8
0
10
296.127961
20
264.220410
11
296.127961
21
264.220410
0
LINE
8
0
10
102.509352
20
466.902463
11
101.549171
21
467.223677
0
LINE
8
0
10
101.549171
20
467.223677
11
100.574090
21
467.154609
0
LINE
8
0
10
100.574090
20
467.154609
11
99.695876
21
466.725314
0
LINE
8
0
10
99.695876
20
466.725314
11
99.026296
21
465.965847
0
LINE
8
0
10
99.026296
20
465.965847
11
98.703369
21
465.006241
0
LINE
8
0
10
98.703369
20
465.006241
11
98.770696
21
464.031038
0
LINE
8
0
10
98.770696
20
464.031038
11
99.198422
21
463.152059
0
LINE
8
0
10
99.198422
20
463.152059
11
99.956693
21
462.481125
0
LINE
8
0
10
99.956693
20
462.481125
11
100.916874
21
462.159911
0
LINE
8
0
10
100.916874
20
462.159911
11
101.891955
21
462.228979
0
LINE
8
0
10
101.891955
20
462.228979
11
102.770169
21
462.658274
0
LINE
8
0
10
102.770169
20
462.658274
11
103.439748
21
463.417741
0
LINE
8
0
10
103.439748
20
463.417741
11
103.762676
21
464.377347
0
LINE
8
0
10
103.762676
20
464.377347
11
103.695349
21
465.352550
0
LINE
8
0
10
103.695349
20
465.352550
11
103.267623
21
466.231529
0
LINE
8
0
10
103.267623
20
466.231529
11
102.509352
21
466.902463
0
LINE
8
0
10
102.509352
20
466.902463
11
102.509352
21
466.902463
0
LINE
8
0
10
64.409924
20
488.899179
11
63.449691
21
489.220552
0
LINE
8
0
10
63.449691
20
489.220552
11
62.474513
21
489.151569
0
LINE
8
0
10
62.474513
20
489.151569
11
61.596193
21
488.722286
0
LINE
8
0
10
61.596193
20
488.722286
11
60.926532
21
487.962758
0
LINE
8
0
10
60.926532
20
487.962758
11
60.603591
21
487.003051
0
LINE
8
0
10
60.603591
20
487.003051
11
60.670981
21
486.027762
0
LINE
8
0
10
60.670981
20
486.027762
11
61.098828
21
485.148742
0
LINE
8
0
10
61.098828
20
485.148742
11
61.857262
21
484.477841
0
LINE
8
0
10
61.857262
20
484.477841
11
62.817495
21
484.156468
0
LINE
8
0
10
62.817495
20
484.156468
11
63.792673
21
484.225451
0
LINE
8
0
10
63.792673
20
484.225451
11
64.670993
21
484.654734
0
LINE
8
0
10
64.670993
20
484.654734
11
65.340653
21
485.414262
0
LINE
8
0
10
65.340653
20
485.414262
11
65.663595
21
486.373970
0
LINE
8
0
10
65.663595
20
486.373970
11
65.596205
21
487.349259
0
LINE
8
0
10
65.596205
20
487.349259
11
65.168358
21
488.228279
0
LINE
8
0
10
65.168358
20
488.228279
11
64.409924
21
488.899179
0
LINE
8
0
10
64.409924
20
488.899179
11
64.409924
21
488.899179
0
LINE
8
0
10
102.509347
20
510.895888
11
101.549165
21
511.217102
0
LINE
8
0
10
101.549165
20
511.217102
11
100.574084
21
511.148034
0
LINE
8
0
10
100.574084
20
511.148034
11
99.695871
21
510.718739
0
LINE
8
0
10
99.695871
20
510.718739
11
99.026291
21
509.959272
0
LINE
8
0
10
99.026291
20
509.959272
11
98.703363
21
508.999665
0
LINE
8
0
10
98.703363
20
508.999665
11
98.770690
21
508.024463
0
LINE
8
0
10
98.770690
20
508.024463
11
99.198417
21
507.145484
0
LINE
8
0
10
99.198417
20
507.145484
11
99.956687
21
506.474550
0
LINE
8
0
10
99.956687
20
506.474550
11
100.916869
21
506.153335
0
LINE
8
0
10
100.916869
20
506.153335
11
101.891950
21
506.222403
0
LINE
8
0
10
101.891950
20
506.222403
11
102.770164
21
506.651698
0
LINE
8
0
10
102.770164
20
506.651698
11
103.439743
21
507.411165
0
LINE
8
0
10
103.439743
20
507.411165
11
103.762671
21
508.370772
0
LINE
8
0
10
103.762671
20
508.370772
11
103.695344
21
509.345975
0
LINE
8
0
10
103.695344
20
509.345975
11
103.267617
21
510.224953
0
LINE
8
0
10
103.267617
20
510.224953
11
102.509347
21
510.895888
0
LINE
8
0
10
102.509347
20
510.895888
11
102.509347
21
510.895888
0
LINE
8
0
10
77.109728
20
510.895888
11
76.149547
21
511.217102
0
LINE
8
0
10
76.149547
20
511.217102
11
75.174466
21
511.148034
0
LINE
8
0
10
75.174466
20
511.148034
11
74.296252
21
510.718739
0
LINE
8
0
10
74.296252
20
510.718739
11
73.626672
21
509.959272
0
LINE
8
0
10
73.626672
20
509.959272
11
73.303745
21
508.999665
0
LINE
8
0
10
73.303745
20
508.999665
11
73.371072
21
508.024463
0
LINE
8
0
10
73.371072
20
508.024463
11
73.798798
21
507.145484
0
LINE
8
0
10
73.798798
20
507.145484
11
74.557068
21
506.474550
0
LINE
8
0
10
74.557068
20
506.474550
11
75.517250
21
506.153335
0
LINE
8
0
10
75.517250
20
506.153335
11
76.492331
21
506.222403
0
LINE
8
0
10
76.492331
20
506.222403
11
77.370545
21
506.651698
0
LINE
8
0
10
77.370545
20
506.651698
11
78.040124
21
507.411165
0
LINE
8
0
10
78.040124
20
507.411165
11
78.363052
21
508.370772
0
LINE
8
0
10
78.363052
20
508.370772
11
78.295725
21
509.345975
0
LINE
8
0
10
78.295725
20
509.345975
11
77.867999
21
510.224953
0
LINE
8
0
10
77.867999
20
510.224953
11
77.109728
21
510.895888
0
LINE
8
0
10
77.109728
20
510.895888
11
77.109728
21
510.895888
0
LINE
8
0
10
77.109733
20
466.902466
11
76.149396
21
467.224155
0
LINE
8
0
10
76.149396
20
467.224155
11
75.174026
21
467.155341
0
LINE
8
0
10
75.174026
20
467.155341
11
74.295494
21
466.726081
0
LINE
8
0
10
74.295494
20
466.726081
11
73.625672
21
465.966429
0
LINE
8
0
10
73.625672
20
465.966429
11
73.302705
21
465.006520
0
LINE
8
0
10
73.302705
20
465.006520
11
73.370221
21
464.031059
0
LINE
8
0
10
73.370221
20
464.031059
11
73.798311
21
463.151957
0
LINE
8
0
10
73.798311
20
463.151957
11
74.557071
21
462.481125
0
LINE
8
0
10
74.557071
20
462.481125
11
75.517409
21
462.159436
0
LINE
8
0
10
75.517409
20
462.159436
11
76.492779
21
462.228249
0
LINE
8
0
10
76.492779
20
462.228249
11
77.371311
21
462.657510
0
LINE
8
0
10
77.371311
20
462.657510
11
78.041133
21
463.417162
0
LINE
8
0
10
78.041133
20
463.417162
11
78.364099
21
464.377070
0
LINE
8
0
10
78.364099
20
464.377070
11
78.296584
21
465.352531
0
LINE
8
0
10
78.296584
20
465.352531
11
77.868493
21
466.231633
0
LINE
8
0
10
77.868493
20
466.231633
11
77.109733
21
466.902466
0
LINE
8
0
10
77.109733
20
466.902466
11
77.109733
21
466.902466
0
LINE
8
0
10
115.209159
20
488.899171
11
114.248926
21
489.220544
0
LINE
8
0
10
114.248926
20
489.220544
11
113.273748
21
489.151562
0
LINE
8
0
10
113.273748
20
489.151562
11
112.395428
21
488.722279
0
LINE
8
0
10
112.395428
20
488.722279
11
111.725767
21
487.962750
0
LINE
8
0
10
111.725767
20
487.962750
11
111.402826
21
487.003043
0
LINE
8
0
10
111.402826
20
487.003043
11
111.470216
21
486.027754
0
LINE
8
0
10
111.470216
20
486.027754
11
111.898063
21
485.148734
0
LINE
8
0
10
111.898063
20
485.148734
11
112.656497
21
484.477833
0
LINE
8
0
10
112.656497
20
484.477833
11
113.616730
21
484.156460
0
LINE
8
0
10
113.616730
20
484.156460
11
114.591908
21
484.225443
0
LINE
8
0
10
114.591908
20
484.225443
11
115.470228
21
484.654726
0
LINE
8
0
10
115.470228
20
484.654726
11
116.139888
21
485.414254
0
LINE
8
0
10
116.139888
20
485.414254
11
116.462829
21
486.373962
0
LINE
8
0
10
116.462829
20
486.373962
11
116.395440
21
487.349251
0
LINE
8
0
10
116.395440
20
487.349251
11
115.967592
21
488.228271
0
LINE
8
0
10
115.967592
20
488.228271
11
115.209159
21
488.899171
0
LINE
8
0
10
115.209159
20
488.899171
11
115.209159
21
488.899171
0
LINE
8
0
10
302.687371
20
437.435161
11
301.726736
21
437.757756
0
LINE
8
0
10
301.726736
20
437.757756
11
300.750815
21
437.689429
0
LINE
8
0
10
300.750815
20
437.689429
11
299.871678
21
437.260235
0
LINE
8
0
10
299.871678
20
437.260235
11
299.201393
21
436.500232
0
LINE
8
0
10
299.201393
20
436.500232
11
298.878351
21
435.539748
0
LINE
8
0
10
298.878351
20
435.539748
11
298.946225
21
434.563796
0
LINE
8
0
10
298.946225
20
434.563796
11
299.375009
21
433.684458
0
LINE
8
0
10
299.375009
20
433.684458
11
300.134700
21
433.013820
0
LINE
8
0
10
300.134700
20
433.013820
11
301.095334
21
432.691225
0
LINE
8
0
10
301.095334
20
432.691225
11
302.071255
21
432.759553
0
LINE
8
0
10
302.071255
20
432.759553
11
302.950393
21
433.188746
0
LINE
8
0
10
302.950393
20
433.188746
11
303.620678
21
433.948749
0
LINE
8
0
10
303.620678
20
433.948749
11
303.943720
21
434.909233
0
LINE
8
0
10
303.943720
20
434.909233
11
303.875846
21
435.885186
0
LINE
8
0
10
303.875846
20
435.885186
11
303.447062
21
436.764523
0
LINE
8
0
10
303.447062
20
436.764523
11
302.687371
21
437.435161
0
LINE
8
0
10
302.687371
20
437.435161
11
302.687371
21
437.435161
0
LINE
8
0
10
58.964727
20
432.071484
11
58.004545
21
432.392698
0
LINE
8
0
10
58.004545
20
432.392698
11
57.029464
21
432.323630
0
LINE
8
0
10
57.029464
20
432.323630
11
56.151250
21
431.894336
0
LINE
8
0
10
56.151250
20
431.894336
11
55.481671
21
431.134869
0
LINE
8
0
10
55.481671
20
431.134869
11
55.158743
21
430.175262
0
LINE
8
0
10
55.158743
20
430.175262
11
55.226070
21
429.200059
0
LINE
8
0
10
55.226070
20
429.200059
11
55.653796
21
428.321080
0
LINE
8
0
10
55.653796
20
428.321080
11
56.412067
21
427.650146
0
LINE
8
0
10
56.412067
20
427.650146
11
57.372248
21
427.328932
0
LINE
8
0
10
57.372248
20
427.328932
11
58.347329
21
427.398000
0
LINE
8
0
10
58.347329
20
427.398000
11
59.225543
21
427.827295
0
LINE
8
0
10
59.225543
20
427.827295
11
59.895123
21
428.586762
0
LINE
8
0
10
59.895123
20
428.586762
11
60.218050
21
429.546368
0
LINE
8
0
10
60.218050
20
429.546368
11
60.150723
21
430.521571
0
LINE
8
0
10
60.150723
20
430.521571
11
59.722997
21
431.400550
0
LINE
8
0
10
59.722997
20
431.400550
11
58.964727
21
432.071484
0
LINE
8
0
10
58.964727
20
432.071484
11
58.964727
21
432.071484
0
LINE
8
0
10
78.014443
20
421.073126
11
77.054210
21
421.394499
0
LINE
8
0
10
77.054210
20
421.394499
11
76.079032
21
421.325516
0
LINE
8
0
10
76.079032
20
421.325516
11
75.200712
21
420.896233
0
LINE
8
0
10
75.200712
20
420.896233
11
74.531052
21
420.136705
0
LINE
8
0
10
74.531052
20
420.136705
11
74.208110
21
419.176998
0
LINE
8
0
10
74.208110
20
419.176998
11
74.275500
21
418.201709
0
LINE
8
0
10
74.275500
20
418.201709
11
74.703348
21
417.322689
0
LINE
8
0
10
74.703348
20
417.322689
11
75.461781
21
416.651788
0
LINE
8
0
10
75.461781
20
416.651788
11
76.422014
21
416.330415
0
LINE
8
0
10
76.422014
20
416.330415
11
77.397192
21
416.399398
0
LINE
8
0
10
77.397192
20
416.399398
11
78.275512
21
416.828681
0
LINE
8
0
10
78.275512
20
416.828681
11
78.945173
21
417.588209
0
LINE
8
0
10
78.945173
20
417.588209
11
79.268114
21
418.547916
0
LINE
8
0
10
79.268114
20
418.547916
11
79.200724
21
419.523205
0
LINE
8
0
10
79.200724
20
419.523205
11
78.772877
21
420.402226
0
LINE
8
0
10
78.772877
20
420.402226
11
78.014443
21
421.073126
0
LINE
8
0
10
78.014443
20
421.073126
11
78.014443
21
421.073126
0
LINE
8
0
10
131.539550
20
383.380383
11
130.579212
21
383.702072
0
LINE
8
0
10
130.579212
20
383.702072
11
129.603842
21
383.633259
0
LINE
8
0
10
129.603842
20
383.633259
11
128.725310
21
383.203998
0
LINE
8
0
10
128.725310
20
383.203998
11
128.055488
21
382.444347
0
LINE
8
0
10
128.055488
20
382.444347
11
127.732522
21
381.484438
0
LINE
8
0
10
127.732522
20
381.484438
11
127.800037
21
380.508977
0
LINE
8
0
10
127.800037
20
380.508977
11
128.228128
21
379.629875
0
LINE
8
0
10
128.228128
20
379.629875
11
128.986887
21
378.959043
0
LINE
8
0
10
128.986887
20
378.959043
11
129.947225
21
378.637354
0
LINE
8
0
10
129.947225
20
378.637354
11
130.922595
21
378.706167
0
LINE
8
0
10
130.922595
20
378.706167
11
131.801127
21
379.135427
0
LINE
8
0
10
131.801127
20
379.135427
11
132.470949
21
379.895079
0
LINE
8
0
10
132.470949
20
379.895079
11
132.793916
21
380.854988
0
LINE
8
0
10
132.793916
20
380.854988
11
132.726400
21
381.830449
0
LINE
8
0
10
132.726400
20
381.830449
11
132.298309
21
382.709551
0
LINE
8
0
10
132.298309
20
382.709551
11
131.539550
21
383.380383
0
LINE
8
0
10
131.539550
20
383.380383
11
131.539550
21
383.380383
0
LINE
8
0
10
311.240572
20
187.752298
11
310.279937
21
188.074894
0
LINE
8
0
10
310.279937
20
188.074894
11
309.304017
21
188.006566
0
LINE
8
0
10
309.304017
20
188.006566
11
308.424879
21
187.577372
0
LINE
8
0
10
308.424879
20
187.577372
11
307.754594
21
186.817370
0
LINE
8
0
10
307.754594
20
186.817370
11
307.431552
21
185.856885
0
LINE
8
0
10
307.431552
20
185.856885
11
307.499426
21
184.880933
0
LINE
8
0
10
307.499426
20
184.880933
11
307.928210
21
184.001596
0
LINE
8
0
10
307.928210
20
184.001596
11
308.687901
21
183.330958
0
LINE
8
0
10
308.687901
20
183.330958
11
309.648536
21
183.008362
0
LINE
8
0
10
309.648536
20
183.008362
11
310.624456
21
183.076690
0
LINE
8
0
10
310.624456
20
183.076690
11
311.503594
21
183.505883
0
LINE
8
0
10
311.503594
20
183.505883
11
312.173879
21
184.265886
0
LINE
8
0
10
312.173879
20
184.265886
11
312.496921
21
185.226370
0
LINE
8
0
10
312.496921
20
185.226370
11
312.429047
21
186.202323
0
LINE
8
0
10
312.429047
20
186.202323
11
312.000263
21
187.081660
0
LINE
8
0
10
312.000263
20
187.081660
11
311.240572
21
187.752298
0
LINE
8
0
10
311.240572
20
187.752298
11
311.240572
21
187.752298
0
LINE
8
0
10
13.861485
20
359.444178
11
12.901252
21
359.765551
0
LINE
8
0
10
12.901252
20
359.765551
11
11.926074
21
359.696569
0
LINE
8
0
10
11.926074
20
359.696569
11
11.047754
21
359.267286
0
LINE
8
0
10
11.047754
20
359.267286
11
10.378093
21
358.507757
0
LINE
8
0
10
10.378093
20
358.507757
11
10.055152
21
357.548050
0
LINE
8
0
10
10.055152
20
357.548050
11
10.122542
21
356.572761
0
LINE
8
0
10
10.122542
20
356.572761
11
10.550389
21
355.693741
0
LINE
8
0
10
10.550389
20
355.693741
11
11.308823
21
355.022840
0
LINE
8
0
10
11.308823
20
355.022840
11
12.269056
21
354.701467
0
LINE
8
0
10
12.269056
20
354.701467
11
13.244234
21
354.770450
0
LINE
8
0
10
13.244234
20
354.770450
11
14.122554
21
355.199733
0
LINE
8
0
10
14.122554
20
355.199733
11
14.792214
21
355.959261
0
LINE
8
0
10
14.792214
20
355.959261
11
15.115156
21
356.918969
0
LINE
8
0
10
15.115156
20
356.918969
11
15.047766
21
357.894258
0
LINE
8
0
10
15.047766
20
357.894258
11
14.619919
21
358.773278
0
LINE
8
0
10
14.619919
20
358.773278
11
13.861485
21
359.444178
0
LINE
8
0
10
13.861485
20
359.444178
11
13.861485
21
359.444178
0
LINE
8
0
10
322.629653
20
387.366969
11
321.669720
21
387.687424
0
LINE
8
0
10
321.669720
20
387.687424
11
320.695100
21
387.617949
0
LINE
8
0
10
320.695100
20
387.617949
11
319.817393
21
387.188598
0
LINE
8
0
10
319.817393
20
387.188598
11
319.148202
21
386.429423
0
LINE
8
0
10
319.148202
20
386.429423
11
318.825339
21
385.470298
0
LINE
8
0
10
318.825339
20
385.470298
11
318.892368
21
384.495506
0
LINE
8
0
10
318.892368
20
384.495506
11
319.319516
21
383.616725
0
LINE
8
0
10
319.319516
20
383.616725
11
320.077009
21
382.945631
0
LINE
8
0
10
320.077009
20
382.945631
11
321.036942
21
382.625176
0
LINE
8
0
10
321.036942
20
382.625176
11
322.011562
21
382.694651
0
LINE
8
0
10
322.011562
20
382.694651
11
322.889268
21
383.124002
0
LINE
8
0
10
322.889268
20
383.124002
11
323.558460
21
383.883177
0
LINE
8
0
10
323.558460
20
383.883177
11
323.881323
21
384.842303
0
LINE
8
0
10
323.881323
20
384.842303
11
323.814293
21
385.817094
0
LINE
8
0
10
323.814293
20
385.817094
11
323.387145
21
386.695875
0
LINE
8
0
10
323.387145
20
386.695875
11
322.629653
21
387.366969
0
LINE
8
0
10
322.629653
20
387.366969
11
322.629653
21
387.366969
0
LINE
8
0
10
273.130883
20
301.632579
11
272.170886
21
301.953227
0
LINE
8
0
10
272.170886
20
301.953227
11
271.196148
21
301.883856
0
LINE
8
0
10
271.196148
20
301.883856
11
270.318312
21
301.454518
0
LINE
8
0
10
270.318312
20
301.454518
11
269.649021
21
300.695268
0
LINE
8
0
10
269.649021
20
300.695268
11
269.326143
21
299.736019
0
LINE
8
0
10
269.326143
20
299.736019
11
269.393249
21
298.761122
0
LINE
8
0
10
269.393249
20
298.761122
11
269.820546
21
297.882290
0
LINE
8
0
10
269.820546
20
297.882290
11
270.578239
21
297.211238
0
LINE
8
0
10
270.578239
20
297.211238
11
271.538236
21
296.890589
0
LINE
8
0
10
271.538236
20
296.890589
11
272.512974
21
296.959960
0
LINE
8
0
10
272.512974
20
296.959960
11
273.390810
21
297.389298
0
LINE
8
0
10
273.390810
20
297.389298
11
274.060101
21
298.148548
0
LINE
8
0
10
274.060101
20
298.148548
11
274.382979
21
299.107798
0
LINE
8
0
10
274.382979
20
299.107798
11
274.315873
21
300.082695
0
LINE
8
0
10
274.315873
20
300.082695
11
273.888576
21
300.961526
0
LINE
8
0
10
273.888576
20
300.961526
11
273.130883
21
301.632579
0
LINE
8
0
10
273.130883
20
301.632579
11
273.130883
21
301.632579
0
LINE
8
0
10
78.014430
20
443.069850
11
77.054155
21
443.391348
0
LINE
8
0
10
77.054155
20
443.391348
11
76.078901
21
443.322433
0
LINE
8
0
10
76.078901
20
443.322433
11
75.200497
21
442.893158
0
LINE
8
0
10
75.200497
20
442.893158
11
74.530772
21
442.133580
0
LINE
8
0
10
74.530772
20
442.133580
11
74.207822
21
441.173793
0
LINE
8
0
10
74.207822
20
441.173793
11
74.275262
21
440.198435
0
LINE
8
0
10
74.275262
20
440.198435
11
74.703207
21
439.319383
0
LINE
8
0
10
74.703207
20
439.319383
11
75.461770
21
438.648510
0
LINE
8
0
10
75.461770
20
438.648510
11
76.422045
21
438.327011
0
LINE
8
0
10
76.422045
20
438.327011
11
77.397300
21
438.395927
0
LINE
8
0
10
77.397300
20
438.395927
11
78.275704
21
438.825202
0
LINE
8
0
10
78.275704
20
438.825202
11
78.945428
21
439.584780
0
LINE
8
0
10
78.945428
20
439.584780
11
79.268379
21
440.544567
0
LINE
8
0
10
79.268379
20
440.544567
11
79.200939
21
441.519925
0
LINE
8
0
10
79.200939
20
441.519925
11
78.772994
21
442.398977
0
LINE
8
0
10
78.772994
20
442.398977
11
78.014430
21
443.069850
0
LINE
8
0
10
78.014430
20
443.069850
11
78.014430
21
443.069850
0
LINE
8
0
10
202.056507
20
505.519336
11
201.095889
21
505.841876
0
LINE
8
0
10
201.095889
20
505.841876
11
200.119999
21
505.773517
0
LINE
8
0
10
200.119999
20
505.773517
11
199.240897
21
505.344318
0
LINE
8
0
10
199.240897
20
505.344318
11
198.570639
21
504.584334
0
LINE
8
0
10
198.570639
20
504.584334
11
198.247602
21
503.623882
0
LINE
8
0
10
198.247602
20
503.623882
11
198.315456
21
502.647957
0
LINE
8
0
10
198.315456
20
502.647957
11
198.744200
21
501.768633
0
LINE
8
0
10
198.744200
20
501.768633
11
199.503837
21
501.097982
0
LINE
8
0
10
199.503837
20
501.097982
11
200.464456
21
500.775442
0
LINE
8
0
10
200.464456
20
500.775442
11
201.440345
21
500.843801
0
LINE
8
0
10
201.440345
20
500.843801
11
202.319448
21
501.273001
0
LINE
8
0
10
202.319448
20
501.273001
11
202.989705
21
502.032985
0
LINE
8
0
10
202.989705
20
502.032985
11
203.312742
21
502.993436
0
LINE
8
0
10
203.312742
20
502.993436
11
203.244889
21
503.969361
0
LINE
8
0
10
203.244889
20
503.969361
11
202.816144
21
504.848686
0
LINE
8
0
10
202.816144
20
504.848686
11
202.056507
21
505.519336
0
LINE
8
0
10
202.056507
20
505.519336
11
202.056507
21
505.519336
0
LINE
8
0
10
181.038320
20
469.114768
11
180.078138
21
469.435983
0
LINE
8
0
10
180.078138
20
469.435983
11
179.103057
21
469.366915
0
LINE
8
0
10
179.103057
20
469.366915
11
178.224843
21
468.937620
0
LINE
8
0
10
178.224843
20
468.937620
11
177.555264
21
468.178153
0
LINE
8
0
10
177.555264
20
468.178153
11
177.232336
21
467.218546
0
LINE
8
0
10
177.232336
20
467.218546
11
177.299663
21
466.243343
0
LINE
8
0
10
177.299663
20
466.243343
11
177.727389
21
465.364365
0
LINE
8
0
10
177.727389
20
465.364365
11
178.485660
21
464.693430
0
LINE
8
0
10
178.485660
20
464.693430
11
179.445841
21
464.372216
0
LINE
8
0
10
179.445841
20
464.372216
11
180.420922
21
464.441284
0
LINE
8
0
10
180.420922
20
464.441284
11
181.299136
21
464.870579
0
LINE
8
0
10
181.299136
20
464.870579
11
181.968716
21
465.630046
0
LINE
8
0
10
181.968716
20
465.630046
11
182.291643
21
466.589653
0
LINE
8
0
10
182.291643
20
466.589653
11
182.224316
21
467.564855
0
LINE
8
0
10
182.224316
20
467.564855
11
181.796590
21
468.443834
0
LINE
8
0
10
181.796590
20
468.443834
11
181.038320
21
469.114768
0
LINE
8
0
10
181.038320
20
469.114768
11
181.038320
21
469.114768
0
LINE
8
0
10
294.149065
20
338.037141
11
293.189068
21
338.357790
0
LINE
8
0
10
293.189068
20
338.357790
11
292.214330
21
338.288418
0
LINE
8
0
10
292.214330
20
338.288418
11
291.336494
21
337.859080
0
LINE
8
0
10
291.336494
20
337.859080
11
290.667204
21
337.099830
0
LINE
8
0
10
290.667204
20
337.099830
11
290.344325
21
336.140581
0
LINE
8
0
10
290.344325
20
336.140581
11
290.411432
21
335.165684
0
LINE
8
0
10
290.411432
20
335.165684
11
290.838729
21
334.286853
0
LINE
8
0
10
290.838729
20
334.286853
11
291.596422
21
333.615800
0
LINE
8
0
10
291.596422
20
333.615800
11
292.556419
21
333.295151
0
LINE
8
0
10
292.556419
20
333.295151
11
293.531157
21
333.364523
0
LINE
8
0
10
293.531157
20
333.364523
11
294.408993
21
333.793861
0
LINE
8
0
10
294.408993
20
333.793861
11
295.078283
21
334.553111
0
LINE
8
0
10
295.078283
20
334.553111
11
295.401162
21
335.512360
0
LINE
8
0
10
295.401162
20
335.512360
11
295.334055
21
336.487257
0
LINE
8
0
10
295.334055
20
336.487257
11
294.906758
21
337.366088
0
LINE
8
0
10
294.906758
20
337.366088
11
294.149065
21
338.037141
0
LINE
8
0
10
294.149065
20
338.037141
11
294.149065
21
338.037141
0
LINE
8
0
10
343.647862
20
423.771537
11
342.687616
21
424.092936
0
LINE
8
0
10
342.687616
20
424.092936
11
341.712420
21
424.023966
0
LINE
8
0
10
341.712420
20
424.023966
11
340.834080
21
423.594684
0
LINE
8
0
10
340.834080
20
423.594684
11
340.164404
21
422.835143
0
LINE
8
0
10
340.164404
20
422.835143
11
339.841460
21
421.875416
0
LINE
8
0
10
339.841460
20
421.875416
11
339.908860
21
420.900110
0
LINE
8
0
10
339.908860
20
420.900110
11
340.336729
21
420.021080
0
LINE
8
0
10
340.336729
20
420.021080
11
341.095191
21
419.350183
0
LINE
8
0
10
341.095191
20
419.350183
11
342.055437
21
419.028784
0
LINE
8
0
10
342.055437
20
419.028784
11
343.030633
21
419.097753
0
LINE
8
0
10
343.030633
20
419.097753
11
343.908973
21
419.527036
0
LINE
8
0
10
343.908973
20
419.527036
11
344.578649
21
420.286577
0
LINE
8
0
10
344.578649
20
420.286577
11
344.901593
21
421.246304
0
LINE
8
0
10
344.901593
20
421.246304
11
344.834193
21
422.221610
0
LINE
8
0
10
344.834193
20
422.221610
11
344.406324
21
423.100639
0
LINE
8
0
10
344.406324
20
423.100639
11
343.647862
21
423.771537
0
LINE
8
0
10
343.647862
20
423.771537
11
343.647862
21
423.771537
0
LINE
8
0
10
52.605704
20
375.751889
11
51.645523
21
376.073103
0
LINE
8
0
10
51.645523
20
376.073103
11
50.670442
21
376.004035
0
LINE
8
0
10
50.670442
20
376.004035
11
49.792228
21
375.574741
0
LINE
8
0
10
49.792228
20
375.574741
11
49.122649
21
374.815273
0
LINE
8
0
10
49.122649
20
374.815273
11
48.799721
21
373.855667
0
LINE
8
0
10
48.799721
20
373.855667
11
48.867048
21
372.880464
0
LINE
8
0
10
48.867048
20
372.880464
11
49.294774
21
372.001485
0
LINE
8
0
10
49.294774
20
372.001485
11
50.053045
21
371.330551
0
LINE
8
0
10
50.053045
20
371.330551
11
51.013226
21
371.009337
0
LINE
8
0
10
51.013226
20
371.009337
11
51.988307
21
371.078405
0
LINE
8
0
10
51.988307
20
371.078405
11
52.866521
21
371.507700
0
LINE
8
0
10
52.866521
20
371.507700
11
53.536101
21
372.267167
0
LINE
8
0
10
53.536101
20
372.267167
11
53.859028
21
373.226773
0
LINE
8
0
10
53.859028
20
373.226773
11
53.791701
21
374.201976
0
LINE
8
0
10
53.791701
20
374.201976
11
53.363975
21
375.080955
0
LINE
8
0
10
53.363975
20
375.080955
11
52.605704
21
375.751889
0
LINE
8
0
10
52.605704
20
375.751889
11
52.605704
21
375.751889
0
LINE
8
0
10
305.991351
20
229.459628
11
305.030717
21
229.782223
0
LINE
8
0
10
305.030717
20
229.782223
11
304.054796
21
229.713896
0
LINE
8
0
10
304.054796
20
229.713896
11
303.175658
21
229.284702
0
LINE
8
0
10
303.175658
20
229.284702
11
302.505373
21
228.524699
0
LINE
8
0
10
302.505373
20
228.524699
11
302.182331
21
227.564215
0
LINE
8
0
10
302.182331
20
227.564215
11
302.250205
21
226.588262
0
LINE
8
0
10
302.250205
20
226.588262
11
302.678989
21
225.708925
0
LINE
8
0
10
302.678989
20
225.708925
11
303.438680
21
225.038287
0
LINE
8
0
10
303.438680
20
225.038287
11
304.399315
21
224.715692
0
LINE
8
0
10
304.399315
20
224.715692
11
305.375236
21
224.784019
0
LINE
8
0
10
305.375236
20
224.784019
11
306.254373
21
225.213213
0
LINE
8
0
10
306.254373
20
225.213213
11
306.924658
21
225.973216
0
LINE
8
0
10
306.924658
20
225.973216
11
307.247700
21
226.933700
0
LINE
8
0
10
307.247700
20
226.933700
11
307.179826
21
227.909652
0
LINE
8
0
10
307.179826
20
227.909652
11
306.751042
21
228.788990
0
LINE
8
0
10
306.751042
20
228.788990
11
305.991351
21
229.459628
0
LINE
8
0
10
305.991351
20
229.459628
11
305.991351
21
229.459628
0
LINE
8
0
10
152.557730
20
419.784940
11
151.597392
21
420.106629
0
LINE
8
0
10
151.597392
20
420.106629
11
150.622022
21
420.037816
0
LINE
8
0
10
150.622022
20
420.037816
11
149.743490
21
419.608555
0
LINE
8
0
10
149.743490
20
419.608555
11
149.073668
21
418.848904
0
LINE
8
0
10
149.073668
20
418.848904
11
148.750701
21
417.888995
0
LINE
8
0
10
148.750701
20
417.888995
11
148.818217
21
416.913534
0
LINE
8
0
10
148.818217
20
416.913534
11
149.246308
21
416.034432
0
LINE
8
0
10
149.246308
20
416.034432
11
150.005067
21
415.363600
0
LINE
8
0
10
150.005067
20
415.363600
11
150.965405
21
415.041911
0
LINE
8
0
10
150.965405
20
415.041911
11
151.940775
21
415.110724
0
LINE
8
0
10
151.940775
20
415.110724
11
152.819307
21
415.539984
0
LINE
8
0
10
152.819307
20
415.539984
11
153.489129
21
416.299636
0
LINE
8
0
10
153.489129
20
416.299636
11
153.812095
21
417.259545
0
LINE
8
0
10
153.812095
20
417.259545
11
153.744580
21
418.235006
0
LINE
8
0
10
153.744580
20
418.235006
11
153.316489
21
419.114108
0
LINE
8
0
10
153.316489
20
419.114108
11
152.557730
21
419.784940
0
LINE
8
0
10
152.557730
20
419.784940
11
152.557730
21
419.784940
0
LINE
8
0
10
84.364348
20
432.071484
11
83.404115
21
432.392857
0
LINE
8
0
10
83.404115
20
432.392857
11
82.428937
21
432.323874
0
LINE
8
0
10
82.428937
20
432.323874
11
81.550617
21
431.894591
0
LINE
8
0
10
81.550617
20
431.894591
11
80.880956
21
431.135063
0
LINE
8
0
10
80.880956
20
431.135063
11
80.558015
21
430.175356
0
LINE
8
0
10
80.558015
20
430.175356
11
80.625405
21
429.200067
0
LINE
8
0
10
80.625405
20
429.200067
11
81.053252
21
428.321047
0
LINE
8
0
10
81.053252
20
428.321047
11
81.811686
21
427.650146
0
LINE
8
0
10
81.811686
20
427.650146
11
82.771919
21
427.328773
0
LINE
8
0
10
82.771919
20
427.328773
11
83.747097
21
427.397756
0
LINE
8
0
10
83.747097
20
427.397756
11
84.625417
21
427.827039
0
LINE
8
0
10
84.625417
20
427.827039
11
85.295077
21
428.586567
0
LINE
8
0
10
85.295077
20
428.586567
11
85.618018
21
429.546275
0
LINE
8
0
10
85.618018
20
429.546275
11
85.550629
21
430.521564
0
LINE
8
0
10
85.550629
20
430.521564
11
85.122781
21
431.400584
0
LINE
8
0
10
85.122781
20
431.400584
11
84.364348
21
432.071484
0
LINE
8
0
10
84.364348
20
432.071484
11
84.364348
21
432.071484
0
LINE
8
0
10
65.314623
20
421.073137
11
64.354286
21
421.394826
0
LINE
8
0
10
64.354286
20
421.394826
11
63.378916
21
421.326012
0
LINE
8
0
10
63.378916
20
421.326012
11
62.500384
21
420.896752
0
LINE
8
0
10
62.500384
20
420.896752
11
61.830562
21
420.137100
0
LINE
8
0
10
61.830562
20
420.137100
11
61.507595
21
419.177191
0
LINE
8
0
10
61.507595
20
419.177191
11
61.575111
21
418.201731
0
LINE
8
0
10
61.575111
20
418.201731
11
62.003201
21
417.322628
0
LINE
8
0
10
62.003201
20
417.322628
11
62.761961
21
416.651796
0
LINE
8
0
10
62.761961
20
416.651796
11
63.722299
21
416.330107
0
LINE
8
0
10
63.722299
20
416.330107
11
64.697669
21
416.398921
0
LINE
8
0
10
64.697669
20
416.398921
11
65.576200
21
416.828181
0
LINE
8
0
10
65.576200
20
416.828181
11
66.246022
21
417.587833
0
LINE
8
0
10
66.246022
20
417.587833
11
66.568989
21
418.547741
0
LINE
8
0
10
66.568989
20
418.547741
11
66.501474
21
419.523202
0
LINE
8
0
10
66.501474
20
419.523202
11
66.073383
21
420.402304
0
LINE
8
0
10
66.073383
20
420.402304
11
65.314623
21
421.073137
0
LINE
8
0
10
65.314623
20
421.073137
11
65.314623
21
421.073137
0
LINE
8
0
10
65.314631
20
443.069842
11
64.354450
21
443.391056
0
LINE
8
0
10
64.354450
20
443.391056
11
63.379369
21
443.321989
0
LINE
8
0
10
63.379369
20
443.321989
11
62.501155
21
442.892694
0
LINE
8
0
10
62.501155
20
442.892694
11
61.831575
21
442.133227
0
LINE
8
0
10
61.831575
20
442.133227
11
61.508648
21
441.173620
0
LINE
8
0
10
61.508648
20
441.173620
11
61.575975
21
440.198417
0
LINE
8
0
10
61.575975
20
440.198417
11
62.003701
21
439.319439
0
LINE
8
0
10
62.003701
20
439.319439
11
62.761972
21
438.648504
0
LINE
8
0
10
62.761972
20
438.648504
11
63.722153
21
438.327290
0
LINE
8
0
10
63.722153
20
438.327290
11
64.697234
21
438.396358
0
LINE
8
0
10
64.697234
20
438.396358
11
65.575448
21
438.825653
0
LINE
8
0
10
65.575448
20
438.825653
11
66.245027
21
439.585120
0
LINE
8
0
10
66.245027
20
439.585120
11
66.567955
21
440.544726
0
LINE
8
0
10
66.567955
20
440.544726
11
66.500628
21
441.519929
0
LINE
8
0
10
66.500628
20
441.519929
11
66.072902
21
442.398908
0
LINE
8
0
10
66.072902
20
442.398908
11
65.314631
21
443.069842
0
LINE
8
0
10
65.314631
20
443.069842
11
65.314631
21
443.069842
0
LINE
8
0
10
281.669188
20
401.030601
11
280.708756
21
401.352580
0
LINE
8
0
10
280.708756
20
401.352580
11
279.733211
21
401.283922
0
LINE
8
0
10
279.733211
20
401.283922
11
278.854486
21
400.854684
0
LINE
8
0
10
278.854486
20
400.854684
11
278.184516
21
400.094921
0
LINE
8
0
10
278.184516
20
400.094921
11
277.861524
21
399.134830
0
LINE
8
0
10
277.861524
20
399.134830
11
277.929152
21
398.159212
0
LINE
8
0
10
277.929152
20
398.159212
11
278.357463
21
397.280035
0
LINE
8
0
10
278.357463
20
397.280035
11
279.116518
21
396.609263
0
LINE
8
0
10
279.116518
20
396.609263
11
280.076949
21
396.287285
0
LINE
8
0
10
280.076949
20
396.287285
11
281.052495
21
396.355943
0
LINE
8
0
10
281.052495
20
396.355943
11
281.931220
21
396.785181
0
LINE
8
0
10
281.931220
20
396.785181
11
282.601190
21
397.544944
0
LINE
8
0
10
282.601190
20
397.544944
11
282.924182
21
398.505035
0
LINE
8
0
10
282.924182
20
398.505035
11
282.856554
21
399.480652
0
LINE
8
0
10
282.856554
20
399.480652
11
282.428243
21
400.359830
0
LINE
8
0
10
282.428243
20
400.359830
11
281.669188
21
401.030601
0
LINE
8
0
10
281.669188
20
401.030601
11
281.669188
21
401.030601
0
LINE
8
0
10
289.443801
20
329.887360
11
286.828745
21
331.063929
0
LINE
8
0
10
286.828745
20
331.063929
11
284.114724
21
331.677451
0
LINE
8
0
10
284.114724
20
331.677451
11
281.379464
21
331.748769
0
LINE
8
0
10
281.379464
20
331.748769
11
278.700689
21
331.298724
0
LINE
8
0
10
278.700689
20
331.298724
11
276.156127
21
330.348159
0
LINE
8
0
10
276.156127
20
330.348159
11
273.823503
21
328.917914
0
LINE
8
0
10
273.823503
20
328.917914
11
271.780542
21
327.028832
0
LINE
8
0
10
271.780542
20
327.028832
11
270.104971
21
324.701754
0
LINE
8
0
10
270.104971
20
324.701754
11
268.927446
21
322.087129
0
LINE
8
0
10
268.927446
20
322.087129
11
268.312931
21
319.373333
0
LINE
8
0
10
268.312931
20
319.373333
11
268.240613
21
316.638099
0
LINE
8
0
10
268.240613
20
316.638099
11
268.689678
21
313.959160
0
LINE
8
0
10
268.689678
20
313.959160
11
269.639313
21
311.414250
0
LINE
8
0
10
269.639313
20
311.414250
11
271.068704
21
309.081103
0
LINE
8
0
10
271.068704
20
309.081103
11
272.957039
21
307.037451
0
LINE
8
0
10
272.957039
20
307.037451
11
275.283504
21
305.361029
0
LINE
8
0
10
275.283504
20
305.361029
11
277.898559
21
304.184461
0
LINE
8
0
10
277.898559
20
304.184461
11
280.612580
21
303.570938
0
LINE
8
0
10
280.612580
20
303.570938
11
283.347841
21
303.499620
0
LINE
8
0
10
283.347841
20
303.499620
11
286.026615
21
303.949665
0
LINE
8
0
10
286.026615
20
303.949665
11
288.571177
21
304.900231
0
LINE
8
0
10
288.571177
20
304.900231
11
290.903802
21
306.330475
0
LINE
8
0
10
290.903802
20
306.330475
11
292.946762
21
308.219558
0
LINE
8
0
10
292.946762
20
308.219558
11
294.622334
21
310.546635
0
LINE
8
0
10
294.622334
20
310.546635
11
295.799858
21
313.161260
0
LINE
8
0
10
295.799858
20
313.161260
11
296.414373
21
315.875056
0
LINE
8
0
10
296.414373
20
315.875056
11
296.486692
21
318.610291
0
LINE
8
0
10
296.486692
20
318.610291
11
296.037627
21
321.289229
0
LINE
8
0
10
296.037627
20
321.289229
11
295.087992
21
323.834139
0
LINE
8
0
10
295.087992
20
323.834139
11
293.658600
21
326.167287
0
LINE
8
0
10
293.658600
20
326.167287
11
291.770265
21
328.210938
0
LINE
8
0
10
291.770265
20
328.210938
11
289.443801
21
329.887360
0
LINE
8
0
10
289.443801
20
329.887360
11
289.443801
21
329.887360
0
LINE
8
0
10
147.852452
20
411.635159
11
145.237544
21
412.811008
0
LINE
8
0
10
145.237544
20
412.811008
11
142.523797
21
413.423959
0
LINE
8
0
10
142.523797
20
413.423959
11
139.788901
21
413.494857
0
LINE
8
0
10
139.788901
20
413.494857
11
137.110546
21
413.044540
0
LINE
8
0
10
137.110546
20
413.044540
11
134.566423
21
412.093852
0
LINE
8
0
10
134.566423
20
412.093852
11
132.234222
21
410.663635
0
LINE
8
0
10
132.234222
20
410.663635
11
130.191634
21
408.774728
0
LINE
8
0
10
130.191634
20
408.774728
11
128.516349
21
406.447975
0
LINE
8
0
10
128.516349
20
406.447975
11
127.338964
21
403.833759
0
LINE
8
0
10
127.338964
20
403.833759
11
126.724417
21
401.120373
0
LINE
8
0
10
126.724417
20
401.120373
11
126.651912
21
398.385518
0
LINE
8
0
10
126.651912
20
398.385518
11
127.100653
21
395.706899
0
LINE
8
0
10
127.100653
20
395.706899
11
128.049845
21
393.162218
0
LINE
8
0
10
128.049845
20
393.162218
11
129.478692
21
390.829177
0
LINE
8
0
10
129.478692
20
390.829177
11
131.366397
21
388.785478
0
LINE
8
0
10
131.366397
20
388.785478
11
133.692165
21
387.108826
0
LINE
8
0
10
133.692165
20
387.108826
11
136.307073
21
385.932978
0
LINE
8
0
10
136.307073
20
385.932978
11
139.020820
21
385.320026
0
LINE
8
0
10
139.020820
20
385.320026
11
141.755716
21
385.249129
0
LINE
8
0
10
141.755716
20
385.249129
11
144.434071
21
385.699445
0
LINE
8
0
10
144.434071
20
385.699445
11
146.978194
21
386.650133
0
LINE
8
0
10
146.978194
20
386.650133
11
149.310395
21
388.080351
0
LINE
8
0
10
149.310395
20
388.080351
11
151.352983
21
389.969257
0
LINE
8
0
10
151.352983
20
389.969257
11
153.028268
21
392.296011
0
LINE
8
0
10
153.028268
20
392.296011
11
154.205653
21
394.910227
0
LINE
8
0
10
154.205653
20
394.910227
11
154.820200
21
397.623613
0
LINE
8
0
10
154.820200
20
397.623613
11
154.892705
21
400.358467
0
LINE
8
0
10
154.892705
20
400.358467
11
154.443964
21
403.037086
0
LINE
8
0
10
154.443964
20
403.037086
11
153.494772
21
405.581768
0
LINE
8
0
10
153.494772
20
405.581768
11
152.065925
21
407.914809
0
LINE
8
0
10
152.065925
20
407.914809
11
150.178220
21
409.958507
0
LINE
8
0
10
150.178220
20
409.958507
11
147.852452
21
411.635159
0
LINE
8
0
10
147.852452
20
411.635159
11
147.852452
21
411.635159
0
LINE
8
0
10
74.769632
20
437.449692
11
73.151248
21
438.178269
0
LINE
8
0
10
73.151248
20
438.178269
11
71.471538
21
438.558315
0
LINE
8
0
10
71.471538
20
438.558315
11
69.778624
21
438.602727
0
LINE
8
0
10
69.778624
20
438.602727
11
68.120629
21
438.324403
0
LINE
8
0
10
68.120629
20
438.324403
11
66.545676
21
437.736240
0
LINE
8
0
10
66.545676
20
437.736240
11
65.101889
21
436.851137
0
LINE
8
0
10
65.101889
20
436.851137
11
63.837389
21
435.681991
0
LINE
8
0
10
63.837389
20
435.681991
11
62.800300
21
434.241701
0
LINE
8
0
10
62.800300
20
434.241701
11
62.071516
21
432.623410
0
LINE
8
0
10
62.071516
20
432.623410
11
61.691256
21
430.943748
0
LINE
8
0
10
61.691256
20
430.943748
11
61.646628
21
429.250840
0
LINE
8
0
10
61.646628
20
429.250840
11
61.924741
21
427.592809
0
LINE
8
0
10
61.924741
20
427.592809
11
62.512703
21
426.017782
0
LINE
8
0
10
62.512703
20
426.017782
11
63.397622
21
424.573881
0
LINE
8
0
10
63.397622
20
424.573881
11
64.566606
21
423.309232
0
LINE
8
0
10
64.566606
20
423.309232
11
66.006765
21
422.271960
0
LINE
8
0
10
66.006765
20
422.271960
11
67.625148
21
421.543382
0
LINE
8
0
10
67.625148
20
421.543382
11
69.304859
21
421.163337
0
LINE
8
0
10
69.304859
20
421.163337
11
70.997773
21
421.118925
0
LINE
8
0
10
70.997773
20
421.118925
11
72.655767
21
421.397249
0
LINE
8
0
10
72.655767
20
421.397249
11
74.230720
21
421.985412
0
LINE
8
0
10
74.230720
20
421.985412
11
75.674508
21
422.870515
0
LINE
8
0
10
75.674508
20
422.870515
11
76.939007
21
424.039660
0
LINE
8
0
10
76.939007
20
424.039660
11
77.976097
21
425.479951
0
LINE
8
0
10
77.976097
20
425.479951
11
78.704880
21
427.098242
0
LINE
8
0
10
78.704880
20
427.098242
11
79.085140
21
428.777904
0
LINE
8
0
10
79.085140
20
428.777904
11
79.129768
21
430.470812
0
LINE
8
0
10
79.129768
20
430.470812
11
78.851655
21
432.128842
0
LINE
8
0
10
78.851655
20
432.128842
11
78.263694
21
433.703870
0
LINE
8
0
10
78.263694
20
433.703870
11
77.378775
21
435.147770
0
LINE
8
0
10
77.378775
20
435.147770
11
76.209790
21
436.412419
0
LINE
8
0
10
76.209790
20
436.412419
11
74.769632
21
437.449692
0
LINE
8
0
10
74.769632
20
437.449692
11
74.769632
21
437.449692
0
LINE
8
0
10
297.982106
20
429.285378
11
295.367000
21
430.462192
0
LINE
8
0
10
295.367000
20
430.462192
11
292.652885
21
431.075908
0
LINE
8
0
10
292.652885
20
431.075908
11
289.917500
21
431.147369
0
LINE
8
0
10
289.917500
20
431.147369
11
287.238582
21
430.697417
0
LINE
8
0
10
287.238582
20
430.697417
11
284.693870
21
429.746892
0
LINE
8
0
10
284.693870
20
429.746892
11
282.361101
21
428.316638
0
LINE
8
0
10
282.361101
20
428.316638
11
280.318014
21
426.427496
0
LINE
8
0
10
280.318014
20
426.427496
11
278.642345
21
424.100307
0
LINE
8
0
10
278.642345
20
424.100307
11
277.464773
21
421.485542
0
LINE
8
0
10
277.464773
20
421.485542
11
276.850270
21
418.771606
0
LINE
8
0
10
276.850270
20
418.771606
11
276.778016
21
416.036241
0
LINE
8
0
10
276.778016
20
416.036241
11
277.227192
21
413.357193
0
LINE
8
0
10
277.227192
20
413.357193
11
278.176978
21
410.812206
0
LINE
8
0
10
278.176978
20
410.812206
11
279.606556
21
408.479022
0
LINE
8
0
10
279.606556
20
408.479022
11
281.495106
21
406.435387
0
LINE
8
0
10
281.495106
20
406.435387
11
283.821809
21
404.759044
0
LINE
8
0
10
283.821809
20
404.759044
11
286.436915
21
403.582230
0
LINE
8
0
10
286.436915
20
403.582230
11
289.151030
21
402.968514
0
LINE
8
0
10
289.151030
20
402.968514
11
291.886415
21
402.897052
0
LINE
8
0
10
291.886415
20
402.897052
11
294.565332
21
403.347005
0
LINE
8
0
10
294.565332
20
403.347005
11
297.110044
21
404.297529
0
LINE
8
0
10
297.110044
20
404.297529
11
299.442813
21
405.727784
0
LINE
8
0
10
299.442813
20
405.727784
11
301.485901
21
407.616926
0
LINE
8
0
10
301.485901
20
407.616926
11
303.161569
21
409.944115
0
LINE
8
0
10
303.161569
20
409.944115
11
304.339142
21
412.558880
0
LINE
8
0
10
304.339142
20
412.558880
11
304.953645
21
415.272816
0
LINE
8
0
10
304.953645
20
415.272816
11
305.025899
21
418.008180
0
LINE
8
0
10
305.025899
20
418.008180
11
304.576723
21
420.687228
0
LINE
8
0
10
304.576723
20
420.687228
11
303.626937
21
423.232216
0
LINE
8
0
10
303.626937
20
423.232216
11
302.197359
21
425.565399
0
LINE
8
0
10
302.197359
20
425.565399
11
300.308809
21
427.609035
0
LINE
8
0
10
300.308809
20
427.609035
11
297.982106
21
429.285378
0
LINE
8
0
10
297.982106
20
429.285378
11
297.982106
21
429.285378
0
LINE
8
0
10
95.613354
20
498.951677
11
92.998240
21
500.128524
0
LINE
8
0
10
92.998240
20
500.128524
11
90.284112
21
500.742267
0
LINE
8
0
10
90.284112
20
500.742267
11
87.548710
21
500.813747
0
LINE
8
0
10
87.548710
20
500.813747
11
84.869772
21
500.363806
0
LINE
8
0
10
84.869772
20
500.363806
11
82.325040
21
499.413287
0
LINE
8
0
10
82.325040
20
499.413287
11
79.992251
21
497.983030
0
LINE
8
0
10
79.992251
20
497.983030
11
77.949147
21
496.093879
0
LINE
8
0
10
77.949147
20
496.093879
11
76.273465
21
493.766674
0
LINE
8
0
10
76.273465
20
493.766674
11
75.095888
21
491.151889
0
LINE
8
0
10
75.095888
20
491.151889
11
74.481387
21
488.437933
0
LINE
8
0
10
74.481387
20
488.437933
11
74.409142
21
485.702551
0
LINE
8
0
10
74.409142
20
485.702551
11
74.858334
21
483.023488
0
LINE
8
0
10
74.858334
20
483.023488
11
75.808143
21
480.478490
0
LINE
8
0
10
75.808143
20
480.478490
11
77.237748
21
478.145302
0
LINE
8
0
10
77.237748
20
478.145302
11
79.126328
21
476.101670
0
LINE
8
0
10
79.126328
20
476.101670
11
81.453065
21
474.425338
0
LINE
8
0
10
81.453065
20
474.425338
11
84.068178
21
473.248491
0
LINE
8
0
10
84.068178
20
473.248491
11
86.782306
21
472.634748
0
LINE
8
0
10
86.782306
20
472.634748
11
89.517708
21
472.563268
0
LINE
8
0
10
89.517708
20
472.563268
11
92.196646
21
473.013209
0
LINE
8
0
10
92.196646
20
473.013209
11
94.741378
21
473.963728
0
LINE
8
0
10
94.741378
20
473.963728
11
97.074167
21
475.393985
0
LINE
8
0
10
97.074167
20
475.393985
11
99.117271
21
477.283136
0
LINE
8
0
10
99.117271
20
477.283136
11
100.792953
21
479.610341
0
LINE
8
0
10
100.792953
20
479.610341
11
101.970530
21
482.225126
0
LINE
8
0
10
101.970530
20
482.225126
11
102.585031
21
484.939082
0
LINE
8
0
10
102.585031
20
484.939082
11
102.657276
21
487.674464
0
LINE
8
0
10
102.657276
20
487.674464
11
102.208084
21
490.353527
0
LINE
8
0
10
102.208084
20
490.353527
11
101.258275
21
492.898525
0
LINE
8
0
10
101.258275
20
492.898525
11
99.828670
21
495.231713
0
LINE
8
0
10
99.828670
20
495.231713
11
97.940090
21
497.275346
0
LINE
8
0
10
97.940090
20
497.275346
11
95.613354
21
498.951677
0
LINE
8
0
10
95.613354
20
498.951677
11
95.613354
21
498.951677
0
LINE
8
0
10
39.037417
20
377.650524
11
36.422639
21
378.825746
0
LINE
8
0
10
36.422639
20
378.825746
11
33.709130
21
379.438202
0
LINE
8
0
10
33.709130
20
379.438202
11
30.974551
21
379.508734
0
LINE
8
0
10
30.974551
20
379.508734
11
28.296561
21
379.058183
0
LINE
8
0
10
28.296561
20
379.058183
11
25.752819
21
378.107389
0
LINE
8
0
10
25.752819
20
378.107389
11
23.420987
21
376.677195
0
LINE
8
0
10
23.420987
20
376.677195
11
21.378722
21
374.788442
0
LINE
8
0
10
21.378722
20
374.788442
11
19.703686
21
372.461971
0
LINE
8
0
10
19.703686
20
372.461971
11
18.526421
21
369.848112
0
LINE
8
0
10
18.526421
20
369.848112
11
17.911845
21
367.135082
0
LINE
8
0
10
17.911845
20
367.135082
11
17.839177
21
364.400559
0
LINE
8
0
10
17.839177
20
364.400559
11
18.287637
21
361.722218
0
LINE
8
0
10
18.287637
20
361.722218
11
19.236443
21
359.177734
0
LINE
8
0
10
19.236443
20
359.177734
11
20.664815
21
356.844785
0
LINE
8
0
10
20.664815
20
356.844785
11
22.551972
21
354.801046
0
LINE
8
0
10
22.551972
20
354.801046
11
24.877134
21
353.124193
0
LINE
8
0
10
24.877134
20
353.124193
11
27.491912
21
351.948970
0
LINE
8
0
10
27.491912
20
351.948970
11
30.205421
21
351.336514
0
LINE
8
0
10
30.205421
20
351.336514
11
32.940000
21
351.265982
0
LINE
8
0
10
32.940000
20
351.265982
11
35.617990
21
351.716534
0
LINE
8
0
10
35.617990
20
351.716534
11
38.161731
21
352.667327
0
LINE
8
0
10
38.161731
20
352.667327
11
40.493564
21
354.097521
0
LINE
8
0
10
40.493564
20
354.097521
11
42.535829
21
355.986274
0
LINE
8
0
10
42.535829
20
355.986274
11
44.210865
21
358.312745
0
LINE
8
0
10
44.210865
20
358.312745
11
45.388130
21
360.926605
0
LINE
8
0
10
45.388130
20
360.926605
11
46.002706
21
363.639634
0
LINE
8
0
10
46.002706
20
363.639634
11
46.075374
21
366.374157
0
LINE
8
0
10
46.075374
20
366.374157
11
45.626914
21
369.052499
0
LINE
8
0
10
45.626914
20
369.052499
11
44.678108
21
371.596982
0
LINE
8
0
10
44.678108
20
371.596982
11
43.249736
21
373.929931
0
LINE
8
0
10
43.249736
20
373.929931
11
41.362579
21
375.973670
0
LINE
8
0
10
41.362579
20
375.973670
11
39.037417
21
377.650524
0
LINE
8
0
10
39.037417
20
377.650524
11
39.037417
21
377.650524
0
LINE
8
0
10
314.419775
20
218.658450
11
311.804926
21
219.834009
0
LINE
8
0
10
311.804926
20
219.834009
11
309.091288
21
220.446731
0
LINE
8
0
10
309.091288
20
220.446731
11
306.356537
21
220.517458
0
LINE
8
0
10
306.356537
20
220.517458
11
303.678350
21
220.067032
0
LINE
8
0
10
303.678350
20
220.067032
11
301.134404
21
219.116294
0
LINE
8
0
10
301.134404
20
219.116294
11
298.802373
21
217.686086
0
LINE
8
0
10
298.802373
20
217.686086
11
296.759935
21
215.797249
0
LINE
8
0
10
296.759935
20
215.797249
11
295.084766
21
213.470624
0
LINE
8
0
10
295.084766
20
213.470624
11
293.907438
21
210.856572
0
LINE
8
0
10
293.907438
20
210.856572
11
293.292879
21
208.143349
0
LINE
8
0
10
293.292879
20
208.143349
11
293.220301
21
205.408647
0
LINE
8
0
10
293.220301
20
205.408647
11
293.668914
21
202.730156
0
LINE
8
0
10
293.668914
20
202.730156
11
294.617930
21
200.185566
0
LINE
8
0
10
294.617930
20
200.185566
11
296.046560
21
197.852568
0
LINE
8
0
10
296.046560
20
197.852568
11
297.934014
21
195.808852
0
LINE
8
0
10
297.934014
20
195.808852
11
300.259504
21
194.132109
0
LINE
8
0
10
300.259504
20
194.132109
11
302.874353
21
192.956550
0
LINE
8
0
10
302.874353
20
192.956550
11
305.587991
21
192.343828
0
LINE
8
0
10
305.587991
20
192.343828
11
308.322741
21
192.273101
0
LINE
8
0
10
308.322741
20
192.273101
11
311.000928
21
192.723527
0
LINE
8
0
10
311.000928
20
192.723527
11
313.544875
21
193.674265
0
LINE
8
0
10
313.544875
20
193.674265
11
315.876905
21
195.104473
0
LINE
8
0
10
315.876905
20
195.104473
11
317.919343
21
196.993310
0
LINE
8
0
10
317.919343
20
196.993310
11
319.594513
21
199.319935
0
LINE
8
0
10
319.594513
20
199.319935
11
320.771841
21
201.933987
0
LINE
8
0
10
320.771841
20
201.933987
11
321.386400
21
204.647210
0
LINE
8
0
10
321.386400
20
204.647210
11
321.458978
21
207.381912
0
LINE
8
0
10
321.458978
20
207.381912
11
321.010365
21
210.060403
0
LINE
8
0
10
321.010365
20
210.060403
11
320.061349
21
212.604993
0
LINE
8
0
10
320.061349
20
212.604993
11
318.632719
21
214.937991
0
LINE
8
0
10
318.632719
20
214.937991
11
316.745265
21
216.981707
0
LINE
8
0
10
316.745265
20
216.981707
11
314.419775
21
218.658450
0
LINE
8
0
10
314.419775
20
218.658450
11
314.419775
21
218.658450
0
LINE
8
0
10
338.942570
20
415.621745
11
336.327335
21
416.799186
0
LINE
8
0
10
336.327335
20
416.799186
11
333.612983
21
417.413398
0
LINE
8
0
10
333.612983
20
417.413398
11
330.877280
21
417.485225
0
LINE
8
0
10
330.877280
20
417.485225
11
328.197998
21
417.035508
0
LINE
8
0
10
328.197998
20
417.035508
11
325.652904
21
416.085089
0
LINE
8
0
10
325.652904
20
416.085089
11
323.319767
21
414.654811
0
LINE
8
0
10
323.319767
20
414.654811
11
321.276355
21
412.765515
0
LINE
8
0
10
321.276355
20
412.765515
11
319.600438
21
410.438044
0
LINE
8
0
10
319.600438
20
410.438044
11
318.422746
21
407.822923
0
LINE
8
0
10
318.422746
20
407.822923
11
317.808271
21
405.108629
0
LINE
8
0
10
317.808271
20
405.108629
11
317.736181
21
402.372934
0
LINE
8
0
10
317.736181
20
402.372934
11
318.185639
21
399.693608
0
LINE
8
0
10
318.185639
20
399.693608
11
319.135812
21
397.148422
0
LINE
8
0
10
319.135812
20
397.148422
11
320.565865
21
394.815147
0
LINE
8
0
10
320.565865
20
394.815147
11
322.454964
21
392.771553
0
LINE
8
0
10
322.454964
20
392.771553
11
324.782274
21
391.095412
0
LINE
8
0
10
324.782274
20
391.095412
11
327.397509
21
389.917971
0
LINE
8
0
10
327.397509
20
389.917971
11
330.111861
21
389.303759
0
LINE
8
0
10
330.111861
20
389.303759
11
332.847564
21
389.231932
0
LINE
8
0
10
332.847564
20
389.231932
11
335.526846
21
389.681649
0
LINE
8
0
10
335.526846
20
389.681649
11
338.071940
21
390.632068
0
LINE
8
0
10
338.071940
20
390.632068
11
340.405077
21
392.062346
0
LINE
8
0
10
340.405077
20
392.062346
11
342.448489
21
393.951642
0
LINE
8
0
10
342.448489
20
393.951642
11
344.124406
21
396.279113
0
LINE
8
0
10
344.124406
20
396.279113
11
345.302098
21
398.894235
0
LINE
8
0
10
345.302098
20
398.894235
11
345.916573
21
401.608528
0
LINE
8
0
10
345.916573
20
401.608528
11
345.988663
21
404.344223
0
LINE
8
0
10
345.988663
20
404.344223
11
345.539205
21
407.023549
0
LINE
8
0
10
345.539205
20
407.023549
11
344.589032
21
409.568735
0
LINE
8
0
10
344.589032
20
409.568735
11
343.158979
21
411.902010
0
LINE
8
0
10
343.158979
20
411.902010
11
341.269880
21
413.945604
0
LINE
8
0
10
341.269880
20
413.945604
11
338.942570
21
415.621745
0
LINE
8
0
10
338.942570
20
415.621745
11
338.942570
21
415.621745
0
LINE
8
0
10
197.351221
20
497.369545
11
194.736364
21
498.545151
0
LINE
8
0
10
194.736364
20
498.545151
11
192.022709
21
499.157911
0
LINE
8
0
10
192.022709
20
499.157911
11
189.287935
21
499.228667
0
LINE
8
0
10
189.287935
20
499.228667
11
186.609721
21
498.778259
0
LINE
8
0
10
186.609721
20
498.778259
11
184.065746
21
497.827530
0
LINE
8
0
10
184.065746
20
497.827530
11
181.733687
21
496.397322
0
LINE
8
0
10
181.733687
20
496.397322
11
179.691225
21
494.508474
0
LINE
8
0
10
179.691225
20
494.508474
11
178.016036
21
492.181830
0
LINE
8
0
10
178.016036
20
492.181830
11
176.838697
21
489.567752
0
LINE
8
0
10
176.838697
20
489.567752
11
176.224139
21
486.854503
0
LINE
8
0
10
176.224139
20
486.854503
11
176.151572
21
484.119777
0
LINE
8
0
10
176.151572
20
484.119777
11
176.600204
21
481.441265
0
LINE
8
0
10
176.600204
20
481.441265
11
177.549247
21
478.896661
0
LINE
8
0
10
177.549247
20
478.896661
11
178.977910
21
476.563655
0
LINE
8
0
10
178.977910
20
476.563655
11
180.865404
21
474.519941
0
LINE
8
0
10
180.865404
20
474.519941
11
183.190938
21
472.843211
0
LINE
8
0
10
183.190938
20
472.843211
11
185.805795
21
471.667605
0
LINE
8
0
10
185.805795
20
471.667605
11
188.519450
21
471.054845
0
LINE
8
0
10
188.519450
20
471.054845
11
191.254224
21
470.984089
0
LINE
8
0
10
191.254224
20
470.984089
11
193.932438
21
471.434497
0
LINE
8
0
10
193.932438
20
471.434497
11
196.476413
21
472.385226
0
LINE
8
0
10
196.476413
20
472.385226
11
198.808472
21
473.815434
0
LINE
8
0
10
198.808472
20
473.815434
11
200.850935
21
475.704282
0
LINE
8
0
10
200.850935
20
475.704282
11
202.526123
21
478.030926
0
LINE
8
0
10
202.526123
20
478.030926
11
203.703462
21
480.645004
0
LINE
8
0
10
203.703462
20
480.645004
11
204.318020
21
483.358253
0
LINE
8
0
10
204.318020
20
483.358253
11
204.390588
21
486.092979
0
LINE
8
0
10
204.390588
20
486.092979
11
203.941955
21
488.771490
0
LINE
8
0
10
203.941955
20
488.771490
11
202.992912
21
491.316095
0
LINE
8
0
10
202.992912
20
491.316095
11
201.564249
21
493.649101
0
LINE
8
0
10
201.564249
20
493.649101
11
199.676755
21
495.692815
0
LINE
8
0
10
199.676755
20
495.692815
11
197.351221
21
497.369545
0
LINE
8
0
10
197.351221
20
497.369545
11
197.351221
21
497.369545
 0 
ENDSEC
 0 
EOF