<?xml version="1.0" encoding="UTF-8" standalone="no"?>
<!-- Created with Inkscape (http://www.inkscape.org/) -->

<svg
   width="24in"
   height="36in"
   viewBox="0 0 609.60001 914.4"
   version="1.1"
   id="svg1"
   xml:space="preserve"
   inkscape:version="1.3.2 (091e20e, 2023-11-25, custom)"
   sodipodi:docname="gi3.svg"
   xmlns:inkscape="http://www.inkscape.org/namespaces/inkscape"
   xmlns:sodipodi="http://sodipodi.sourceforge.net/DTD/sodipodi-0.dtd"
   xmlns="http://www.w3.org/2000/svg"
   xmlns:svg="http://www.w3.org/2000/svg"><sodipodi:namedview
     id="namedview1"
     pagecolor="#ffffff"
     bordercolor="#000000"
     borderopacity="0.25"
     inkscape:showpageshadow="2"
     inkscape:pageopacity="0.0"
     inkscape:pagecheckerboard="0"
     inkscape:deskcolor="#d1d1d1"
     inkscape:document-units="mm"
     inkscape:zoom="0.2692943"
     inkscape:cx="742.6819"
     inkscape:cy="1216.1416"
     inkscape:window-width="1920"
     inkscape:window-height="1111"
     inkscape:window-x="-9"
     inkscape:window-y="-9"
     inkscape:window-maximized="1"
     inkscape:current-layer="g48" /><defs
     id="defs1"><marker
       id="DistanceX"
       orient="auto"
       refX="0.0"
       refY="0.0"
       style="overflow:visible"><path
         d="M 3,-3 L -3,3 M 0,-5 L  0,5"
         style="stroke:#000000; stroke-width:0.5"
         id="path1" /></marker><pattern
       id="Hatch"
       patternUnits="userSpaceOnUse"
       width="8"
       height="8"
       x="0"
       y="0"><path
         d="M8 4 l-4,4"
         stroke="#000000"
         stroke-width="0.25"
         linecap="square"
         id="path2" /><path
         d="M6 2 l-4,4"
         stroke="#000000"
         stroke-width="0.25"
         linecap="square"
         id="path3" /><path
         d="M4 0 l-4,4"
         stroke="#000000"
         stroke-width="0.25"
         linecap="square"
         id="path4" /></pattern><symbol
       id="*Model_Space" /><symbol
       id="*Paper_Space" /><symbol
       id="*Paper_Space0" /><marker
       id="DistanceX-2"
       orient="auto"
       refX="0.0"
       refY="0.0"
       style="overflow:visible"><path
         d="M 3,-3 L -3,3 M 0,-5 L  0,5"
         style="stroke:#000000; stroke-width:0.5"
         id="path1-0" /></marker><pattern
       id="Hatch-9"
       patternUnits="userSpaceOnUse"
       width="8"
       height="8"
       x="0"
       y="0"><path
         d="M8 4 l-4,4"
         stroke="#000000"
         stroke-width="0.25"
         linecap="square"
         id="path2-2" /><path
         d="M6 2 l-4,4"
         stroke="#000000"
         stroke-width="0.25"
         linecap="square"
         id="path3-0" /><path
         d="M4 0 l-4,4"
         stroke="#000000"
         stroke-width="0.25"
         linecap="square"
         id="path4-9" /></pattern><symbol
       id="*Model_Space-0" /><symbol
       id="*Paper_Space-7" /><symbol
       id="*Paper_Space0-9" /><marker
       id="DistanceX-6"
       orient="auto"
       refX="0.0"
       refY="0.0"
       style="overflow:visible"><path
         d="M 3,-3 L -3,3 M 0,-5 L  0,5"
         style="stroke:#000000; stroke-width:0.5"
         id="path1-1" /></marker><pattern
       id="Hatch-96"
       patternUnits="userSpaceOnUse"
       width="8"
       height="8"
       x="0"
       y="0"><path
         d="M8 4 l-4,4"
         stroke="#000000"
         stroke-width="0.25"
         linecap="square"
         id="path2-6" /><path
         d="M6 2 l-4,4"
         stroke="#000000"
         stroke-width="0.25"
         linecap="square"
         id="path3-1" /><path
         d="M4 0 l-4,4"
         stroke="#000000"
         stroke-width="0.25"
         linecap="square"
         id="path4-7" /></pattern><symbol
       id="*Model_Space-2" /><symbol
       id="*Paper_Space-8" /><symbol
       id="*Paper_Space0-7" /><marker
       id="DistanceX-9"
       orient="auto"
       refX="0.0"
       refY="0.0"
       style="overflow:visible"><path
         d="M 3,-3 L -3,3 M 0,-5 L  0,5"
         style="stroke:#000000; stroke-width:0.5"
         id="path1-4" /></marker><pattern
       id="Hatch-7"
       patternUnits="userSpaceOnUse"
       width="8"
       height="8"
       x="0"
       y="0"><path
         d="M8 4 l-4,4"
         stroke="#000000"
         stroke-width="0.25"
         linecap="square"
         id="path2-4" /><path
         d="M6 2 l-4,4"
         stroke="#000000"
         stroke-width="0.25"
         linecap="square"
         id="path3-8" /><path
         d="M4 0 l-4,4"
         stroke="#000000"
         stroke-width="0.25"
         linecap="square"
         id="path4-2" /></pattern><symbol
       id="*Model_Space-5" /><symbol
       id="*Paper_Space-3" /><symbol
       id="*Paper_Space0-8" /><marker
       id="DistanceX-29"
       orient="auto"
       refX="0.0"
       refY="0.0"
       style="overflow:visible"><path
         d="M 3,-3 L -3,3 M 0,-5 L  0,5"
         style="stroke:#000000; stroke-width:0.5"
         id="path1-3" /></marker><pattern
       id="Hatch-0"
       patternUnits="userSpaceOnUse"
       width="8"
       height="8"
       x="0"
       y="0"><path
         d="M8 4 l-4,4"
         stroke="#000000"
         stroke-width="0.25"
         linecap="square"
         id="path2-24" /><path
         d="M6 2 l-4,4"
         stroke="#000000"
         stroke-width="0.25"
         linecap="square"
         id="path3-03" /><path
         d="M4 0 l-4,4"
         stroke="#000000"
         stroke-width="0.25"
         linecap="square"
         id="path4-79" /></pattern><symbol
       id="*Model_Space-8" /><symbol
       id="*Paper_Space-9" /><symbol
       id="*Paper_Space0-5" /></defs><g
     inkscape:label="Layer 1"
     inkscape:groupmode="layer"
     id="layer1"><g
       inkscape:label="0"
       id="g48"
       transform="matrix(0.26458333,0,0,0.26458333,197.02229,-56.56949)"><path
         d="m 577.13606,1434.794 a 78,78 0 0 0 90.2192,-22.4253 L 1159.9153,814.04775 a 24,24 0 0 0 -3.6222,-34.06299 L 528.94238,282.794 H -642.0184 v 1152 z"
         style="fill:none;stroke:#000000;vector-effect:non-scaling-stroke;-inkscape-stroke:hairline;stroke-width:1.00000001;stroke-dasharray:none"
         id="path5" /><path
         d="m -536.37294,858.81136 a 9.6480002,9.6480002 0 0 0 -19.296,0 9.6480002,9.6480002 0 0 0 19.296,0 z"
         style="fill:none;stroke:#000000;vector-effect:non-scaling-stroke;-inkscape-stroke:hairline;stroke-width:1.00000001;stroke-dasharray:none"
         id="path6" /><path
         d="m -440.37292,858.81136 a 9.648,9.648 0 0 0 -19.296,0 9.648,9.648 0 0 0 19.296,0 z"
         style="fill:none;stroke:#000000;vector-effect:non-scaling-stroke;-inkscape-stroke:hairline;stroke-width:1.00000001;stroke-dasharray:none"
         id="path7" /><path
         d="m -344.37292,858.81136 a 9.648,9.648 0 0 0 -19.296,0 9.648,9.648 0 0 0 19.296,0 z"
         style="fill:none;stroke:#000000;vector-effect:non-scaling-stroke;-inkscape-stroke:hairline;stroke-width:1.00000001;stroke-dasharray:none"
         id="path8" /><path
         d="m -248.37292,858.81136 a 9.648,9.648 0 0 0 -19.296,0 9.648,9.648 0 0 0 19.296,0 z"
         style="fill:none;stroke:#000000;vector-effect:non-scaling-stroke;-inkscape-stroke:hairline;stroke-width:1.00000001;stroke-dasharray:none"
         id="path9" /><path
         d="m -152.37292,858.81136 a 9.648,9.648 0 0 0 -19.296,0 9.648,9.648 0 0 0 19.296,0 z"
         style="fill:none;stroke:#000000;vector-effect:non-scaling-stroke;-inkscape-stroke:hairline;stroke-width:1.00000001;stroke-dasharray:none"
         id="path10" /><path
         d="m -56.37292,858.81136 a 9.648,9.648 0 0 0 -19.296,0 9.648,9.648 0 0 0 19.296,0 z"
         style="fill:none;stroke:#000000;vector-effect:non-scaling-stroke;-inkscape-stroke:hairline;stroke-width:1.00000001;stroke-dasharray:none"
         id="path11" /><path
         d="m -104.37292,330.81125 a 9.648,9.648 0 0 0 -19.296,0 9.648,9.648 0 0 0 19.296,0 z"
         style="fill:none;stroke:#000000;vector-effect:non-scaling-stroke;-inkscape-stroke:hairline;stroke-width:1.00000001;stroke-dasharray:none"
         id="path12" /><path
         d="m -200.37292,330.81125 a 9.648,9.648 0 0 0 -19.296,0 9.648,9.648 0 0 0 19.296,0 z"
         style="fill:none;stroke:#000000;vector-effect:non-scaling-stroke;-inkscape-stroke:hairline;stroke-width:1.00000001;stroke-dasharray:none"
         id="path13" /><path
         d="m -296.37292,330.81125 a 9.648,9.648 0 0 0 -19.296,0 9.648,9.648 0 0 0 19.296,0 z"
         style="fill:none;stroke:#000000;vector-effect:non-scaling-stroke;-inkscape-stroke:hairline;stroke-width:1.00000001;stroke-dasharray:none"
         id="path14" /><path
         d="m -392.37292,330.81125 a 9.648,9.648 0 0 0 -19.296,0 9.648,9.648 0 0 0 19.296,0 z"
         style="fill:none;stroke:#000000;vector-effect:non-scaling-stroke;-inkscape-stroke:hairline;stroke-width:1.00000001;stroke-dasharray:none"
         id="path15" /><path
         d="m -488.37292,330.81125 a 9.648,9.648 0 0 0 -19.296,0 9.648,9.648 0 0 0 19.296,0 z"
         style="fill:none;stroke:#000000;vector-effect:non-scaling-stroke;-inkscape-stroke:hairline;stroke-width:1.00000001;stroke-dasharray:none"
         id="path16" /><path
         d="m -584.37294,330.81125 a 9.648,9.648 0 0 0 -19.296,0 9.648,9.648 0 0 0 19.296,0 z"
         style="fill:none;stroke:#000000;vector-effect:non-scaling-stroke;-inkscape-stroke:hairline;stroke-width:1.00000001;stroke-dasharray:none"
         id="path17" /><path
         d="m 537.34147,1362.8114 a 9.648,9.648 0 0 0 -19.296,0 9.648,9.648 0 0 0 19.296,0 z"
         style="fill:none;stroke:#000000;vector-effect:non-scaling-stroke;-inkscape-stroke:hairline;stroke-width:1.00000001;stroke-dasharray:none"
         id="path18" /><path
         d="m 272.18702,1098.8114 a 9.648,9.648 0 0 0 -19.296,0 9.648,9.648 0 0 0 19.296,0 z"
         style="fill:none;stroke:#000000;vector-effect:non-scaling-stroke;-inkscape-stroke:hairline;stroke-width:1.00000001;stroke-dasharray:none"
         id="path19" /><path
         d="m 992.15177,798.81136 a 9.648,9.648 0 0 0 -19.296,0 9.648,9.648 0 0 0 19.296,0 z"
         style="fill:none;stroke:#000000;vector-effect:non-scaling-stroke;-inkscape-stroke:hairline;stroke-width:1.00000001;stroke-dasharray:none"
         id="path20" /><path
         d="m 788.26067,517.25055 a 9.648,9.648 0 0 0 -19.296,0 9.648,9.648 0 0 0 19.296,0 z"
         style="fill:none;stroke:#000000;vector-effect:non-scaling-stroke;-inkscape-stroke:hairline;stroke-width:1.00000001;stroke-dasharray:none"
         id="path21" /><path
         d="m 629.38067,517.25055 a 9.648,9.648 0 0 0 -19.296,0 9.648,9.648 0 0 0 19.296,0 z"
         style="fill:none;stroke:#000000;vector-effect:non-scaling-stroke;-inkscape-stroke:hairline;stroke-width:1.00000001;stroke-dasharray:none"
         id="path22" /><path
         d="m 1151.0318,798.81136 a 9.648,9.648 0 0 0 -19.296,0 9.648,9.648 0 0 0 19.296,0 z"
         style="fill:none;stroke:#000000;vector-effect:non-scaling-stroke;-inkscape-stroke:hairline;stroke-width:1.00000001;stroke-dasharray:none"
         id="path23" /><path
         d="m 431.06705,1098.8114 a 9.648,9.648 0 0 0 -19.296,0 9.648,9.648 0 0 0 19.296,0 z"
         style="fill:none;stroke:#000000;vector-effect:non-scaling-stroke;-inkscape-stroke:hairline;stroke-width:1.00000001;stroke-dasharray:none"
         id="path24" /><path
         d="m 696.22147,1362.8114 a 9.648,9.648 0 0 0 -19.296,0 9.648,9.648 0 0 0 19.296,0 z"
         style="fill:none;stroke:#000000;vector-effect:non-scaling-stroke;-inkscape-stroke:hairline;stroke-width:1.00000001;stroke-dasharray:none"
         id="path25" /><path
         d="m -536.37294,330.81125 a 9.6480002,9.6480002 0 0 0 -19.296,0 9.6480002,9.6480002 0 0 0 19.296,0 z"
         style="fill:none;stroke:#000000;vector-effect:non-scaling-stroke;-inkscape-stroke:hairline;stroke-width:1.00000001;stroke-dasharray:none"
         id="path26" /><path
         d="m -440.37292,330.81125 a 9.648,9.648 0 0 0 -19.296,0 9.648,9.648 0 0 0 19.296,0 z"
         style="fill:none;stroke:#000000;vector-effect:non-scaling-stroke;-inkscape-stroke:hairline;stroke-width:1.00000001;stroke-dasharray:none"
         id="path27" /><path
         d="m -344.37292,330.81125 a 9.648,9.648 0 0 0 -19.296,0 9.648,9.648 0 0 0 19.296,0 z"
         style="fill:none;stroke:#000000;vector-effect:non-scaling-stroke;-inkscape-stroke:hairline;stroke-width:1.00000001;stroke-dasharray:none"
         id="path28" /><path
         d="m -248.37292,330.81125 a 9.648,9.648 0 0 0 -19.296,0 9.648,9.648 0 0 0 19.296,0 z"
         style="fill:none;stroke:#000000;vector-effect:non-scaling-stroke;-inkscape-stroke:hairline;stroke-width:1.00000001;stroke-dasharray:none"
         id="path29" /><path
         d="m -152.37292,330.81125 a 9.648,9.648 0 0 0 -19.296,0 9.648,9.648 0 0 0 19.296,0 z"
         style="fill:none;stroke:#000000;vector-effect:non-scaling-stroke;-inkscape-stroke:hairline;stroke-width:1.00000001;stroke-dasharray:none"
         id="path30" /><path
         d="m -56.37292,330.81125 a 9.648,9.648 0 0 0 -19.296,0 9.648,9.648 0 0 0 19.296,0 z"
         style="fill:none;stroke:#000000;vector-effect:non-scaling-stroke;-inkscape-stroke:hairline;stroke-width:1.00000001;stroke-dasharray:none"
         id="path31" /><path
         d="m -104.37292,858.81136 a 9.648,9.648 0 0 0 -19.296,0 9.648,9.648 0 0 0 19.296,0 z"
         style="fill:none;stroke:#000000;vector-effect:non-scaling-stroke;-inkscape-stroke:hairline;stroke-width:1.00000001;stroke-dasharray:none"
         id="path32" /><path
         d="m -200.37292,858.81136 a 9.648,9.648 0 0 0 -19.296,0 9.648,9.648 0 0 0 19.296,0 z"
         style="fill:none;stroke:#000000;vector-effect:non-scaling-stroke;-inkscape-stroke:hairline;stroke-width:1.00000001;stroke-dasharray:none"
         id="path33" /><path
         d="m -296.37292,858.81136 a 9.648,9.648 0 0 0 -19.296,0 9.648,9.648 0 0 0 19.296,0 z"
         style="fill:none;stroke:#000000;vector-effect:non-scaling-stroke;-inkscape-stroke:hairline;stroke-width:1.00000001;stroke-dasharray:none"
         id="path34" /><path
         d="m -392.37292,858.81136 a 9.648,9.648 0 0 0 -19.296,0 9.648,9.648 0 0 0 19.296,0 z"
         style="fill:none;stroke:#000000;vector-effect:non-scaling-stroke;-inkscape-stroke:hairline;stroke-width:1.00000001;stroke-dasharray:none"
         id="path35" /><path
         d="m -488.37292,858.81136 a 9.648,9.648 0 0 0 -19.296,0 9.648,9.648 0 0 0 19.296,0 z"
         style="fill:none;stroke:#000000;vector-effect:non-scaling-stroke;-inkscape-stroke:hairline;stroke-width:1.00000001;stroke-dasharray:none"
         id="path36" /><path
         d="m -584.37294,858.81136 a 9.648,9.648 0 0 0 -19.296,0 9.648,9.648 0 0 0 19.296,0 z"
         style="fill:none;stroke:#000000;vector-effect:non-scaling-stroke;-inkscape-stroke:hairline;stroke-width:1.00000001;stroke-dasharray:none"
         id="path37" /><path
         d="m 50.223475,1098.8114 a 9.648,9.648 0 0 0 -19.296,0 9.648,9.648 0 0 0 19.296,0 z"
         style="fill:none;stroke:#000000;vector-effect:non-scaling-stroke;-inkscape-stroke:hairline;stroke-width:1.00000001;stroke-dasharray:none"
         id="path38" /><path
         d="m 216.50033,1098.8114 a 9.648,9.648 0 0 0 -19.296,0 9.648,9.648 0 0 0 19.296,0 z"
         style="fill:none;stroke:#000000;vector-effect:non-scaling-stroke;-inkscape-stroke:hairline;stroke-width:1.00000001;stroke-dasharray:none"
         id="path39" /><path
         d="m 133.36189,954.81136 a 9.648,9.648 0 0 0 -19.296,0 9.648,9.648 0 0 0 19.296,0 z"
         style="fill:none;stroke:#000000;vector-effect:non-scaling-stroke;-inkscape-stroke:hairline;stroke-width:1.00000001;stroke-dasharray:none"
         id="path40" /><path
         d="m 216.50033,1002.8114 a 9.648,9.648 0 0 0 -19.296,0 9.648,9.648 0 0 0 19.296,0 z"
         style="fill:none;stroke:#000000;vector-effect:non-scaling-stroke;-inkscape-stroke:hairline;stroke-width:1.00000001;stroke-dasharray:none"
         id="path41" /><path
         d="m 133.36189,1146.8114 a 9.648,9.648 0 0 0 -19.296,0 9.648,9.648 0 0 0 19.296,0 z"
         style="fill:none;stroke:#000000;vector-effect:non-scaling-stroke;-inkscape-stroke:hairline;stroke-width:1.00000001;stroke-dasharray:none"
         id="path42" /><path
         d="m 50.223475,1002.8114 a 9.648,9.648 0 0 0 -19.296,0 9.648,9.648 0 0 0 19.296,0 z"
         style="fill:none;stroke:#000000;vector-effect:non-scaling-stroke;-inkscape-stroke:hairline;stroke-width:1.00000001;stroke-dasharray:none"
         id="path43" /><path
         d="m 161.15389,1050.8114 a 37.44002,37.44002 0 0 0 -74.880014,0 37.44002,37.44002 0 0 0 74.880014,0 z"
         style="fill:none;stroke:#000000;vector-effect:non-scaling-stroke;-inkscape-stroke:hairline;stroke-width:1.00000001;stroke-dasharray:none"
         id="path44" /><path
         d="m 1115.9438,798.81136 a 54.000015,54.000015 0 0 0 -108,0 54.000015,54.000015 0 0 0 108,0 z"
         style="fill:none;stroke:#000000;vector-effect:non-scaling-stroke;-inkscape-stroke:hairline;stroke-width:1.00000001;stroke-dasharray:none"
         id="path45" /><path
         d="m 753.17267,517.25055 a 54,54 0 0 0 -108,0 54,54 0 0 0 108,0 z"
         style="fill:none;stroke:#000000;vector-effect:non-scaling-stroke;-inkscape-stroke:hairline;stroke-width:1.00000001;stroke-dasharray:none"
         id="path46" /><path
         d="m 661.13347,1362.8114 a 54.000002,54.000002 0 0 0 -108,0 54.000002,54.000002 0 0 0 108,0 z"
         style="fill:none;stroke:#000000;vector-effect:non-scaling-stroke;-inkscape-stroke:hairline;stroke-width:1.00000001;stroke-dasharray:none"
         id="path47" /><path
         d="m 395.97905,1098.8114 a 54.000015,54.000015 0 0 0 -108.00003,0 54.000015,54.000015 0 0 0 108.00003,0 z"
         style="fill:none;stroke:#000000;vector-effect:non-scaling-stroke;-inkscape-stroke:hairline;stroke-width:1.00000001;stroke-dasharray:none"
         id="path48" /></g></g></svg>
